<?xml version="1.0" encoding="UTF-8" standalone="no"?>
<!DOCTYPE svg PUBLIC "-//W3C//DTD SVG 1.1//EN" "http://www.w3.org/Graphics/SVG/1.1/DTD/svg11.dtd">
<svg width="100%" height="100%" viewBox="0 0 982 982" version="1.1" xmlns="http://www.w3.org/2000/svg" xmlns:xlink="http://www.w3.org/1999/xlink" xml:space="preserve" xmlns:serif="http://www.serif.com/" style="fill-rule:evenodd;clip-rule:evenodd;stroke-linejoin:round;stroke-miterlimit:2;">
    <g id="Layer1">
    </g>
    <path d="M552.192,737.145C551.443,732.168 543.25,730.899 539.457,734.675C535.47,738.642 535.177,744.883 535.003,750.505C534.015,782.6 528.846,814.563 519.67,845.334C501.223,839.492 481.015,839.343 462.483,844.912C453.168,814.525 448.01,782.866 447.197,751.094C447.056,745.568 446.817,739.451 442.973,735.479C439.281,731.662 431.139,732.656 430.268,737.635C431.044,729.178 425.505,721.079 418.471,716.23C411.263,711.26 402.626,708.924 394.333,706.114C335.932,686.33 290.387,641.002 247.08,597.108C265.838,594.412 284.81,591.661 302.381,584.562C315.459,579.278 327.464,571.702 339.388,564.168L444.521,497.744C446.2,496.683 448.164,495.578 450.063,496.16C451.642,496.644 452.646,498.15 453.52,499.551L485.384,550.655C488.799,556.132 496.974,550.418 500.389,544.941L530.424,496.761C531.69,494.731 534.809,495.802 536.831,497.081L648.649,567.786C674.635,584.217 704.527,594.424 735.135,597.318C687.109,645.496 635.794,695.617 569.969,712.782C559.436,715.529 551.642,726.301 552.192,737.145Z" style="fill:rgb(108,78,62);"/>
    <g transform="matrix(1,0,0,1,2e-05,58.837)">
        <path d="M430.71,624.718C427.585,618.472 424.46,612.226 421.336,605.98C420.066,603.443 417.554,600.442 415.025,601.73C401.142,608.799 383.879,606.001 370.266,598.425C356.653,590.849 345.929,579.102 335.462,567.562C334.066,566.023 332.622,564.398 332.108,562.385C331.593,560.371 332.357,557.867 334.3,557.132C336.885,556.155 339.371,558.646 341.039,560.849C349.305,571.758 358.282,582.444 369.774,589.878C381.266,597.312 395.72,601.173 408.875,597.398C411.71,596.585 414.627,595.42 417.515,596.02C421.63,596.875 424.15,600.925 426.185,604.603C429.624,610.817 433.163,618.053 430.71,624.718Z" style="fill-rule:nonzero;"/>
    </g>
    <g transform="matrix(1,0,0,1,2e-05,58.837)">
        <path d="M552.422,623.941C549.93,622.331 550.464,618.599 551.297,615.752C552.771,610.711 554.325,605.515 557.678,601.472C561.03,597.429 566.691,594.814 571.634,596.589C585.45,601.551 601.228,597.342 613.417,589.159C625.605,580.977 634.9,569.253 643.988,557.725C645.784,555.447 649.865,557.768 650.046,560.663C650.228,563.559 648.139,566.044 646.18,568.184C635.774,579.551 625.113,591.121 611.617,598.56C598.12,605.999 581.04,608.707 567.325,601.68C564.413,600.188 561.572,603.755 560.221,606.734C557.621,612.47 555.022,618.205 552.422,623.941Z" style="fill-rule:nonzero;"/>
    </g>
    <path d="M447.56,588.692C448.393,590.443 449.196,592.281 449.204,594.22C449.215,596.756 447.873,599.081 446.505,601.217C438.314,613.995 427.616,625.16 415.198,633.887C413.618,632.917 412.894,631.035 412.298,629.279C402.873,601.517 399.516,571.712 402.528,542.549C402.69,540.982 405.097,541.341 406.426,542.187C424.116,553.445 438.546,569.76 447.56,588.692Z" style="fill:rgb(214,178,164);"/>
    <g transform="matrix(1,0,0,1,2e-05,58.837)">
        <path d="M454.107,528.042C455.271,530.535 456.366,533.209 456.09,535.947C455.849,538.343 454.585,540.5 453.298,542.535C443.121,558.64 429.625,572.637 413.902,583.395C413.414,583.729 412.859,584.075 412.277,583.978C411.469,583.844 411.051,582.961 410.77,582.192C399.212,550.617 393.963,516.747 395.419,483.155C395.514,480.966 395.739,478.547 397.34,477.051C399.871,474.686 403.968,476.1 407.004,477.767C427.474,489.003 444.226,506.884 454.107,528.042M447.56,529.855C438.546,510.923 424.116,494.608 406.426,483.35C405.097,482.504 402.69,482.145 402.528,483.712C399.516,512.875 402.873,542.68 412.298,570.443C412.894,572.198 413.618,574.08 415.198,575.051C427.616,566.323 438.314,555.158 446.505,542.38C447.873,540.244 449.215,537.919 449.204,535.383C449.196,533.444 448.393,531.606 447.56,529.855L447.56,529.855Z" style="fill-rule:nonzero;"/>
    </g>
    <path d="M580.539,540.591C579.482,545.844 580.225,551.264 580.607,556.608C582.442,582.279 575.861,607.723 569.335,632.618C566.135,633.332 563.049,631.207 560.528,629.11C551.702,621.768 543.836,613.273 537.192,603.91C534.728,600.437 532.328,596.409 532.969,592.199C533.315,589.923 534.524,587.883 535.719,585.915C546.955,567.407 560.352,548.417 580.539,540.591Z" style="fill:rgb(214,178,164);"/>
    <g transform="matrix(1,0,0,1,2e-05,58.837)">
        <path d="M528.265,527.686C538.181,506.253 555.293,488.227 576.182,477.211C578.583,475.944 581.558,474.778 583.883,476.179C586.142,477.54 586.557,480.589 586.689,483.224C588.346,516.219 583.292,549.537 571.924,580.556C571.6,581.44 571.223,582.384 570.429,582.89C568.971,583.819 567.091,582.788 565.701,581.761C552.009,571.649 540.001,559.262 530.32,545.262C528.221,542.226 526.158,538.887 526.142,535.197C526.13,532.573 527.164,530.067 528.265,527.686M580.539,481.755C560.352,489.58 546.955,508.57 535.719,527.078C534.524,529.046 533.315,531.086 532.969,533.362C532.328,537.572 534.728,541.6 537.192,545.073C543.836,554.436 551.702,562.931 560.528,570.273C563.049,572.37 566.135,574.495 569.335,573.781C575.861,548.886 582.442,523.442 580.607,497.771C580.225,492.427 579.482,487.007 580.539,481.755L580.539,481.755Z" style="fill-rule:nonzero;"/>
    </g>
    <path d="M508.827,849.465C518.721,852.207 526.973,859.761 531.419,869.016C535.865,878.271 536.667,889.058 534.563,899.108C533.847,902.524 532.672,906.084 529.955,908.276C528.495,909.454 526.704,910.136 524.93,910.751C503.878,918.055 480.468,918.373 459.225,911.645C456.586,910.809 453.9,909.821 451.87,907.938C449.349,905.601 448.152,902.177 447.392,898.824C445.118,888.79 446.049,877.938 450.661,868.742C455.273,859.545 463.674,852.169 473.599,849.459C479.429,847.867 485.559,847.87 491.602,847.883C497.386,847.896 503.253,847.92 508.827,849.465Z" style="fill:rgb(47,15,15);"/>
    <path d="M454.008,829.099C456.372,838.165 458.122,849.894 450.295,855.044C442.508,860.168 438.513,869.738 438.076,879.05C437.638,888.361 440.291,897.531 443.389,906.323C423.692,892.147 415.499,866.719 412.972,842.583C410.446,818.447 412.327,793.806 407.156,770.095C401.38,743.606 386.636,719.155 365.905,701.683L413.091,717.988C415.278,718.743 417.528,719.536 419.247,721.084C425.514,726.731 421.699,739.034 428.597,743.89L440.924,737.041C441.771,768.091 446.171,799.042 454.008,829.099Z" style="fill:rgb(214,178,164);"/>
    <path d="M525.789,847.397L543.935,737.1C543.27,741.326 549.451,743.83 553.125,741.638C556.799,739.445 558.237,734.923 559.301,730.779C560.366,726.635 561.587,722.107 565.077,719.632C566.478,718.638 568.132,718.073 569.76,717.522L616.348,701.735C594.695,720.08 579.536,745.942 574.106,773.797C569.582,797.011 571.661,820.992 569.129,844.507C566.596,868.021 558.136,892.78 538.53,906.006C548.905,886.856 543.178,860.511 525.789,847.397Z" style="fill:rgb(214,178,164);"/>
    <path d="M500.092,384.422L736.761,170.994C737.286,263.328 738.544,355.658 740.534,447.973C740.691,455.273 741.681,463.979 748.171,467.327L804.806,496.541L693.499,578.864C691.649,580.232 689.614,581.663 687.313,581.617C685.253,581.576 683.428,580.353 681.737,579.176L543.97,483.302C539.792,480.394 534.411,484.546 531.058,488.375L490.901,534.246L454.371,491.332C449.829,485.997 442.443,480.192 436.698,484.203L300.797,579.076C298.924,580.382 296.885,581.743 294.602,581.71C292.32,581.677 290.322,580.259 288.489,578.9L177.83,496.843L241.127,463.21L246.1,171.658L483.234,385.243C485.216,387.028 487.37,388.896 490.014,389.249C493.832,389.76 497.231,387.001 500.092,384.422Z" style="fill:rgb(160,148,140);"/>
    <path d="M464.002,455.248C463.82,453.594 464.931,452.106 465.983,450.818C474.047,440.95 482.344,431.274 490.867,421.8C499.623,430.997 508.018,440.538 516.027,450.393C516.958,451.538 517.923,452.782 518.053,454.252C518.211,456.023 517.126,457.639 516.09,459.086L491.078,494.013L465.391,458.116C464.766,457.242 464.12,456.316 464.002,455.248Z" style="fill:rgb(246,88,62);"/>
    <g transform="matrix(1,0,0,1,2e-05,58.837)">
        <path d="M491.171,356.992C492.496,357.036 493.552,358.066 494.461,359.031C504.475,369.663 514.077,380.684 523.239,392.059C524.798,393.995 526.361,396.84 524.75,398.734C513.606,411.84 503.577,425.894 494.806,440.694C493.902,442.22 491.661,442.456 490.067,441.677C488.473,440.898 487.377,439.397 486.347,437.952C477.286,425.248 468.225,412.543 459.164,399.838C458.29,398.613 457.383,397.296 457.306,395.793C457.204,393.794 458.576,392.057 459.875,390.534C468.92,379.941 478.137,369.494 487.522,359.201C488.513,358.115 489.701,356.942 491.171,356.992M464.002,396.411C464.12,397.479 464.766,398.405 465.391,399.279C473.954,411.245 482.516,423.211 491.078,435.176C499.415,423.534 507.753,411.891 516.09,400.249C517.126,398.803 518.211,397.186 518.053,395.415C517.923,393.945 516.958,392.701 516.027,391.556C508.018,381.701 499.623,372.16 490.867,362.963C482.344,372.437 474.046,382.113 465.983,391.981C464.931,393.269 463.82,394.757 464.002,396.411L464.002,396.411Z" style="fill-rule:nonzero;"/>
    </g>
    <path d="M430.79,436.997L294.607,544.106C283.173,433.179 272.678,322.155 263.123,211.05C270.666,222.073 278.648,232.787 286.627,243.498L430.79,436.997Z" style="fill:rgb(246,88,62);"/>
    <g transform="matrix(1,0,0,1,2e-05,58.837)">
        <path d="M438.192,384.141C438.967,385.621 439.747,387.284 439.324,388.901C438.918,390.457 437.514,391.513 436.201,392.443C390.113,425.07 343.807,457.389 297.287,489.398C295.675,490.508 293.808,491.671 291.898,491.243C288.98,490.59 288.123,486.915 287.843,483.938C278.495,384.285 269.146,284.632 259.797,184.978C258.33,169.34 256.88,153.389 260.343,138.068C307.762,202.193 355.182,266.318 402.601,330.443C415.383,347.727 428.219,365.098 438.192,384.141M430.79,378.16C382.736,313.66 334.682,249.16 286.627,184.661C278.648,173.95 270.666,163.236 263.123,152.213C272.678,263.318 283.173,374.342 294.607,485.27C340.002,449.566 385.396,413.863 430.79,378.16Z" style="fill-rule:nonzero;"/>
    </g>
    <path d="M688.047,544.136L555.162,440.404C554.018,439.511 552.783,438.461 552.624,437.019C552.474,435.664 553.331,434.425 554.145,433.332L719.583,211.183L688.047,544.136Z" style="fill:rgb(246,88,62);"/>
    <g transform="matrix(1,0,0,1,2e-05,58.837)">
        <path d="M566.999,348.298C618.401,277.647 670.278,207.342 722.625,137.389C725.369,154.625 723.736,172.223 722.097,189.6C712.825,287.885 703.553,386.17 694.281,484.456C694.055,486.849 693.585,489.629 691.464,490.759C689.115,492.011 686.308,490.45 684.116,488.938C636.443,456.058 589.037,422.793 541.903,389.146C548.082,374.366 557.575,361.251 566.999,348.298M688.047,485.299C698.559,374.315 709.071,263.331 719.583,152.346C664.437,226.396 609.291,300.445 554.145,374.495C553.331,375.588 552.474,376.827 552.624,378.183C552.783,379.625 554.018,380.674 555.162,381.567C599.457,416.144 643.752,450.721 688.047,485.299Z" style="fill-rule:nonzero;"/>
    </g>
    <path d="M809.012,109.986C848.146,133.394 879.078,168.802 902.653,207.834C971.914,322.505 977.58,472.987 917.138,592.541C908.152,563.831 885.621,539.684 857.6,528.735C829.579,517.786 796.646,520.26 770.575,535.273L819.347,489.243L768.721,469.807C761.8,467.15 753.678,462.88 753.541,455.468C751.658,353.622 746.331,251.84 737.574,150.353L490.488,385.806L244.873,150.083C235.427,251.476 230.05,353.247 228.761,455.071C228.665,462.593 220.451,466.976 213.445,469.716L163.854,489.11L211.609,535.206C185.565,520.294 152.752,517.811 124.76,528.633C96.769,539.454 74.159,563.365 64.919,591.918C1.869,467.195 11.676,308.76 89.627,192.766C110.352,161.926 135.777,133.748 166.965,113.551C218.141,80.409 283.317,70.905 342.633,85.009C401.95,99.113 455.009,135.98 491.547,184.789C526.671,136.557 578.38,100.149 636.265,85.686C694.151,71.223 757.808,79.358 809.012,109.986Z" style="fill:rgb(187,25,26);"/>
    <path d="M81.825,644.747C82.41,653.213 75.026,661.284 66.556,661.816C58.086,662.348 49.899,655.603 48.424,647.246C47.329,641.039 49.797,634.262 54.807,630.439C59.818,626.617 67.192,626.077 72.563,629.373C75.147,630.958 77.204,633.302 78.786,635.887C80.431,638.576 81.607,641.602 81.825,644.747Z" style="fill:rgb(240,159,3);"/>
    <path d="M900.24,644.572C900.256,636.353 907.024,628.683 915.177,627.645C923.33,626.607 931.804,632.336 933.879,640.288C935.954,648.241 931.359,657.38 923.738,660.457C916.117,663.535 906.464,660.149 902.435,652.986C900.999,650.431 900.234,647.502 900.24,644.572Z" style="fill:rgb(240,159,3);"/>
    <path d="M382.103,850.932C342.94,844.932 304.8,832.319 269.781,813.787C266.665,815.041 269.019,819.751 271.667,821.818C302.511,845.895 339.361,862.216 377.919,868.877C349.422,876.677 319.588,879.566 290.125,877.376L313.11,863.387L257.452,860.732C257.098,857.794 260.865,856.128 263.819,856.288C266.773,856.448 270.019,857.361 272.497,855.745C275.73,853.637 275.22,848.385 272.522,845.626C269.823,842.867 265.833,841.917 262.087,840.986C188.144,822.599 126.467,761.505 107.378,687.74C157.48,702.657 202.81,733.192 235.461,774.017C234.833,764.574 233.391,755.185 231.157,745.989C257.83,769.513 286.076,791.251 315.644,811.012L312.39,785.284C327.253,805.011 344.257,823.124 363.007,839.202L360.79,816.075C369.746,826.416 376.98,838.247 382.103,850.932Z" style="fill:rgb(37,147,68);"/>
    <path d="M622.401,815.173L618.811,834.243C618.569,835.53 618.501,837.198 619.671,837.784C620.775,838.338 622.024,837.43 622.921,836.581C639.481,820.895 654.953,804.061 669.186,786.237L667.342,812.224L751.942,746.881C748.326,755.492 746.536,764.865 746.726,774.203C779.29,733.165 824.738,702.506 874.984,687.678C855.741,761.308 794.2,822.261 720.389,840.797C716.517,841.77 712.381,842.764 709.628,845.656C706.874,848.548 706.508,854.05 709.958,856.06C712.449,857.512 715.567,856.563 718.445,856.401C721.324,856.238 724.981,857.888 724.632,860.749L670.816,863.61L690.861,877.569C661.878,879.518 632.581,876.709 604.497,869.287C643.243,859.949 682.866,847.222 711.817,819.83C713.824,817.931 715.902,814.965 714.345,812.682C678.808,831.766 640.042,844.82 600.2,851.118C605.493,837.994 613.036,825.781 622.401,815.173Z" style="fill:rgb(37,147,68);"/>
    <path d="M285.716,825.223C321.957,844.067 361.948,855.66 402.648,859.123C405.498,859.365 408.537,859.637 410.789,861.4C413.042,863.163 413.879,867.01 411.664,868.819C377.439,864.359 343.824,855.238 312.039,841.788C302.409,837.713 292.664,833.037 285.716,825.223Z" style="fill:rgb(172,231,189);"/>
    <path d="M659.309,846.217C632.446,856.546 604.465,863.965 576.012,868.303C573.674,868.66 570.777,868.759 569.508,866.763C568.367,864.966 569.427,862.438 571.192,861.249C572.956,860.059 575.181,859.85 577.3,859.656C618.605,855.87 659.182,844.3 696.272,825.734C685.725,835.193 672.532,841.132 659.309,846.217Z" style="fill:rgb(172,231,189);"/>
    <g transform="matrix(1,0,0,1,2e-05,58.837)">
        <path d="M689.077,809.653C697.338,813.377 704.37,819.77 708.864,827.64C669.666,823.897 630.468,820.155 591.27,816.413C581.766,815.506 570.222,815.532 565.111,823.595C549.543,848.16 521.07,864.007 491.988,864.293C462.907,864.578 434.128,849.294 418.08,825.04C411.27,814.747 396.368,814.945 384.1,816.295C347.882,820.279 311.663,824.263 275.445,828.247C277.343,819.345 285.124,812.006 294.122,810.633C275.959,811.142 257.68,806.489 241.97,797.359C249.361,795.365 256.752,793.371 264.143,791.376C182.978,773.794 115.645,704.139 100.824,622.424C149.594,632.732 194.62,659.958 226.402,698.359C226.403,691.271 226.404,684.183 226.405,677.095C253.003,698.577 279.601,720.058 306.198,741.54C306.615,731.827 307.032,722.114 307.449,712.4C322.327,731.622 338.392,749.924 355.522,767.169C355.614,761.768 355.706,756.367 355.798,750.967C368.117,752.904 374.095,766.568 379.809,777.652C385.523,788.736 397.739,800.249 408.8,794.491C408.559,755.881 407.9,715.537 389.785,681.44C357.124,619.964 277.495,596.012 242.336,535.931C252.053,531.082 262.939,528.596 273.797,528.747C249.986,499.167 216.634,475.366 178.899,471.114C141.164,466.863 99.711,485.986 85.292,521.115C78.492,537.682 78.507,558.161 89.719,572.126C100.369,585.39 94.709,607.837 79.52,615.496C64.332,623.155 43.776,615.407 36.31,600.123C28.844,584.838 34.558,564.754 48.217,554.616C-21.031,425.284 -15.265,259.017 62.773,134.792C86.968,96.279 117.937,61.382 156.396,37.102C210.445,2.98 278.418,-8.306 340.594,6.519C402.77,21.343 458.338,62.084 491.177,116.922C524.5,61.26 581.24,20.137 644.509,5.793C707.779,-8.551 776.705,4.081 830.776,39.93C867.129,64.032 896.407,97.741 919.499,134.742C997.241,259.308 1002.9,425.561 933.807,555.124C949.912,565.713 954.57,590.676 942.597,605.782C930.625,620.888 904.26,621.524 892.277,606.427C880.293,591.331 887.792,564.981 906.205,559.281C898.852,526.969 884.168,493.325 854.915,477.756C830.419,464.719 799.896,467.21 774.48,478.345C749.063,489.48 727.871,508.315 708.095,527.781C719.843,527.512 731.642,531.593 740.714,539.063C698.113,597.814 617.448,625.111 587.74,691.323C573.429,723.218 573.442,759.433 573.706,794.39C584.514,800.491 596.761,788.737 602.241,777.601C607.722,766.466 613.951,752.627 626.32,751.601C626.787,756.874 627.254,762.146 627.72,767.419C643.763,748.893 659.806,730.367 675.848,711.842C675.53,722.06 675.212,732.279 674.894,742.498C702.036,720.332 729.177,698.166 756.319,676C755.823,683.455 755.328,690.91 754.833,698.366C787.302,660.243 832.465,633.122 881.374,622.376C866.74,704.184 799.219,773.943 717.933,791.239C726.494,792.086 734.842,795.026 742.045,799.731C725.357,806.737 707.169,810.144 689.077,809.653M809.012,51.149C757.808,20.521 694.151,12.386 636.265,26.849C578.38,41.312 526.671,77.721 491.547,125.952C455.009,77.143 401.95,40.276 342.633,26.172C283.317,12.068 218.141,21.572 166.965,54.714C135.777,74.911 110.352,103.089 89.627,133.929C11.676,249.923 1.869,408.358 64.919,533.081C74.159,504.528 96.769,480.617 124.76,469.796C152.752,458.974 185.565,461.457 211.609,476.369C195.691,461.004 179.772,445.639 163.854,430.273C180.384,423.809 196.914,417.344 213.445,410.879C220.451,408.139 228.665,403.756 228.761,396.234C230.05,294.41 235.427,192.639 244.873,91.246C326.744,169.82 408.616,248.395 490.488,326.969C572.85,248.484 655.212,170 737.574,91.516C746.331,193.003 751.658,294.785 753.541,396.631C753.678,404.043 761.8,408.313 768.721,410.97C785.596,417.449 802.472,423.927 819.347,430.406C803.09,445.749 786.833,461.092 770.575,476.436C796.646,461.423 829.579,458.95 857.6,469.898C885.621,480.847 908.152,504.994 917.138,533.705C977.58,414.15 971.914,263.668 902.653,148.997C879.078,109.965 848.146,74.557 809.012,51.149M500.092,325.585C497.231,328.164 493.832,330.923 490.014,330.412C487.37,330.059 485.216,328.191 483.234,326.406C404.189,255.211 325.144,184.016 246.099,112.822C244.442,210.005 242.784,307.189 241.127,404.373C220.028,415.584 198.929,426.795 177.83,438.006C214.716,465.358 251.603,492.711 288.489,520.063C290.322,521.422 292.32,522.84 294.602,522.873C296.885,522.906 298.924,521.545 300.797,520.239C346.097,488.614 391.398,456.99 436.698,425.366C442.443,421.355 449.829,427.16 454.371,432.495C466.547,446.8 478.724,461.104 490.901,475.409C504.286,460.119 517.672,444.829 531.058,429.539C534.411,425.709 539.792,421.557 543.97,424.465C589.893,456.423 635.815,488.381 681.737,520.339C683.428,521.516 685.253,522.739 687.313,522.78C689.614,522.826 691.649,521.395 693.499,520.027C730.601,492.586 767.703,465.145 804.806,437.704C785.927,427.966 767.049,418.228 748.171,408.49C741.681,405.142 740.691,396.436 740.534,389.136C738.544,296.821 737.286,204.491 736.761,112.157C657.871,183.3 578.981,254.442 500.092,325.585M447.197,692.257C448.01,724.029 453.168,755.688 462.483,786.075C481.015,780.506 501.223,780.655 519.67,786.497C528.846,755.726 534.015,723.763 535.003,691.668C535.177,686.046 535.47,679.806 539.457,675.838C543.444,671.87 552.29,673.474 552.247,679.099C551.265,667.992 559.18,656.759 569.969,653.945C635.794,636.78 687.109,586.659 735.135,538.481C704.527,535.587 674.635,525.38 648.649,508.949C611.377,485.38 574.104,461.812 536.831,438.244C534.809,436.965 531.69,435.894 530.424,437.924C520.412,453.984 510.4,470.044 500.389,486.104C496.974,491.581 488.799,497.295 485.384,491.818C474.763,474.784 464.142,457.749 453.52,440.714C452.646,439.313 451.642,437.807 450.063,437.323C448.164,436.741 446.2,437.846 444.521,438.907C409.477,461.049 374.433,483.19 339.388,505.331C327.464,512.865 315.459,520.441 302.381,525.725C284.81,532.824 265.838,535.575 247.079,538.271C290.387,582.165 335.932,627.493 394.333,647.277C402.626,650.087 411.263,652.423 418.471,657.393C425.68,662.363 431.318,670.745 430.198,679.429C430.465,673.908 439.13,672.669 442.973,676.642C446.817,680.615 447.056,686.731 447.197,692.257M622.401,756.336C613.036,766.944 605.493,779.157 600.2,792.281C640.042,785.983 678.808,772.929 714.344,753.845C715.902,756.128 713.824,759.094 711.817,760.993C682.866,788.385 643.243,801.112 604.497,810.45C632.581,817.872 661.878,820.681 690.861,818.733C684.179,814.079 677.498,809.426 670.816,804.773C688.755,803.82 706.694,802.866 724.632,801.912C724.981,799.051 721.324,797.401 718.445,797.564C715.567,797.726 712.449,798.675 709.958,797.223C706.508,795.213 706.874,789.711 709.627,786.819C712.381,783.927 716.517,782.933 720.389,781.96C794.2,763.424 855.741,702.471 874.984,628.841C824.738,643.669 779.29,674.328 746.726,715.366C746.536,706.028 748.326,696.655 751.942,688.044C723.742,709.825 695.542,731.606 667.342,753.387C667.956,744.725 668.571,736.063 669.186,727.4C654.952,745.224 639.481,762.058 622.921,777.744C622.024,778.593 620.775,779.501 619.671,778.947C618.5,778.361 618.569,776.693 618.811,775.406C620.007,769.049 621.204,762.693 622.401,756.336M382.103,792.095C376.98,779.41 369.746,767.579 360.79,757.238C361.529,764.947 362.268,772.656 363.007,780.365C344.257,764.287 327.253,746.174 312.39,726.447C313.475,735.023 314.56,743.599 315.644,752.175C286.076,732.414 257.83,710.676 231.157,687.152C233.391,696.348 234.833,705.737 235.461,715.18C202.81,674.355 157.48,643.82 107.378,628.903C126.467,702.668 188.144,763.762 262.087,782.149C265.833,783.08 269.823,784.03 272.522,786.789C275.22,789.548 275.73,794.8 272.497,796.908C270.019,798.524 266.773,797.611 263.819,797.451C260.865,797.291 257.098,798.957 257.452,801.895C276.005,802.78 294.557,803.665 313.11,804.55C305.448,809.213 297.787,813.876 290.125,818.539C319.588,820.729 349.422,817.84 377.918,810.04C339.361,803.379 302.511,787.058 271.667,762.981C269.019,760.914 266.665,756.204 269.781,754.95C304.8,773.482 342.94,786.095 382.103,792.095M525.789,788.56C543.178,801.674 548.905,828.019 538.53,847.169C558.136,833.943 566.596,809.184 569.129,785.67C571.661,762.156 569.582,738.174 574.106,714.96C579.536,687.105 594.695,661.243 616.348,642.898C600.819,648.16 585.289,653.423 569.76,658.685C568.132,659.237 566.478,659.801 565.077,660.795C561.587,663.27 560.366,667.798 559.301,671.942C558.237,676.086 556.799,680.608 553.125,682.801C549.451,684.994 543.27,682.489 543.935,678.263C537.886,715.029 531.837,751.794 525.789,788.56M454.008,770.262C446.171,740.205 441.771,709.254 440.924,678.204C436.815,680.487 432.706,682.77 428.597,685.053C421.699,680.197 425.514,667.894 419.247,662.247C417.528,660.699 415.277,659.906 413.091,659.151C397.362,653.716 381.634,648.281 365.905,642.846C386.636,660.318 401.379,684.769 407.156,711.258C412.327,734.969 410.446,759.61 412.972,783.746C415.499,807.882 423.692,833.31 443.389,847.486C440.291,838.694 437.638,829.524 438.076,820.213C438.513,810.901 442.508,801.331 450.295,796.207C458.122,791.057 456.372,779.328 454.008,770.262M508.827,790.628C503.252,789.083 497.386,789.059 491.602,789.046C485.558,789.033 479.429,789.03 473.599,790.622C463.674,793.332 455.273,800.708 450.661,809.905C446.049,819.101 445.118,829.953 447.392,839.987C448.152,843.34 449.349,846.764 451.87,849.102C453.9,850.984 456.586,851.972 459.225,852.808C480.468,859.536 503.878,859.218 524.93,851.914C526.704,851.299 528.494,850.617 529.955,849.439C532.672,847.247 533.847,843.687 534.563,840.271C536.667,830.221 535.865,819.434 531.419,810.179C526.973,800.924 518.721,793.37 508.827,790.628M81.825,585.91C81.607,582.765 80.431,579.739 78.786,577.05C77.204,574.465 75.147,572.121 72.563,570.536C67.192,567.24 59.818,567.78 54.807,571.602C49.797,575.425 47.329,582.202 48.424,588.409C49.899,596.766 58.086,603.511 66.556,602.979C75.026,602.447 82.41,594.376 81.825,585.91M900.24,585.735C900.234,588.665 900.999,591.594 902.435,594.149C906.464,601.312 916.117,604.698 923.738,601.62C931.359,598.543 935.954,589.404 933.879,581.451C931.804,573.499 923.33,567.77 915.177,568.808C907.024,569.846 900.256,577.516 900.24,585.735M285.716,766.386C292.664,774.2 302.409,778.876 312.039,782.951C343.824,796.401 377.439,805.522 411.663,809.982C413.879,808.173 413.042,804.326 410.789,802.563C408.537,800.8 405.498,800.528 402.648,800.286C361.948,796.824 321.957,785.23 285.716,766.386M659.309,787.38C672.532,782.295 685.725,776.356 696.272,766.897C659.182,785.463 618.605,797.033 577.3,800.819C575.181,801.013 572.956,801.222 571.192,802.412C569.427,803.601 568.367,806.129 569.508,807.926C570.777,809.922 573.674,809.823 576.012,809.466C604.464,805.128 632.446,797.709 659.309,787.38Z" style="fill-rule:nonzero;"/>
    </g>
</svg>
