<?xml version="1.0" encoding="UTF-8"?>
<svg xmlns="http://www.w3.org/2000/svg" viewBox="0 0 671.63 792">
  <defs>
    <style>
      .cls-1 {
        fill: #ace7bd;
      }

      .cls-1, .cls-2, .cls-3, .cls-4, .cls-5, .cls-6, .cls-7, .cls-8, .cls-9, .cls-10 {
        stroke: #000;
        stroke-miterlimit: 10;
        stroke-width: .25px;
      }

      .cls-1, .cls-3, .cls-4, .cls-5, .cls-6, .cls-7, .cls-8, .cls-9, .cls-10 {
        fill-rule: evenodd;
      }

      .cls-3 {
        fill: #d6b2a4;
      }

      .cls-4 {
        fill: #259344;
      }

      .cls-11 {
        fill: #f0f2f3;
      }

      .cls-5 {
        fill: #f09f03;
      }

      .cls-6 {
        fill: #6c4e3e;
      }

      .cls-7 {
        fill: #2f0f0f;
      }

      .cls-8 {
        fill: #bb191a;
      }

      .cls-9 {
        fill: #a0948c;
      }

      .cls-10 {
        fill: #f6583e;
      }
    </style>
  </defs>
  <g id="Layer_2" data-name="Layer 2">
    <g>
      <path class="cls-11" d="M336.59,675.31c-21.44,0-42.09-11.09-53.9-28.95-.45-.69-2.57-1.38-6.26-1.38-1.55,0-3.34.11-5.48.35l-81.48,8.96,2.89-13.54c.11-.52.24-1.03.39-1.54-5.75-1.62-11.3-3.96-16.49-6.98l-20.73-12.05,6.03-1.63c-38.81-19.28-68.7-56.53-77.48-99.15-3.73,1.79-7.8,2.7-12.1,2.7-11.67,0-22.86-6.85-27.85-17.05-5.37-11-3.39-24.83,4.18-34.62-19.7-39.54-29.25-84.49-27.66-130.49,1.68-48.58,15.68-95.12,40.48-134.6,17.41-27.72,38.1-49.26,61.48-64.02,25.11-15.85,55.63-24.59,85.92-24.59,12.4,0,24.7,1.43,36.54,4.25,36.61,8.73,69.25,30.48,91.54,60.57,22.62-30.32,56.54-52.71,93.33-61.05,11.29-2.56,23-3.86,34.79-3.86,31.59,0,63.21,9.43,89.03,26.55,22.05,14.62,41.65,35.52,58.25,62.13,24.7,39.58,38.63,86.18,40.29,134.78,1.56,45.93-7.93,90.83-27.51,130.37,3.54,4.38,5.96,9.78,6.9,15.67,1.42,8.86-.73,17.7-5.93,24.25-5.48,6.92-14.42,11.05-23.89,11.05h0c-4.54,0-8.87-.92-12.73-2.64-9,45.13-41.64,84.24-83.62,102.52l8.65,5.65-17.37,7.29c-4.81,2.02-9.84,3.62-14.97,4.77l8.67,15.19-92.48-8.83c-1.41-.14-2.6-.2-3.64-.2-2.09,0-3.11.27-3.49.41-11.63,18.1-32.17,29.46-53.7,29.67h-.59ZM388.02,622.21v-.13s-.04-.29-.04-.29v.16l.04.27ZM253.77,584.81c11.81,1.86,17.46,12.43,21.19,19.75-.62-16.78-2.7-34.03-10.4-48.52-9.36-17.61-26.05-30.07-43.73-43.25-17.81-13.29-36.23-27.03-47.96-47.07l-1.58-2.7-7.87-7.97,9.75-1.4,3.86-1.93c1.41-.7,2.85-1.34,4.31-1.91-9.9-8.88-23.67-17.7-40.5-19.6-1.78-.2-3.61-.3-5.44-.3-18.92,0-36.41,10.41-42.53,25.32-2.72,6.62-3.37,15.91,1.31,21.73,4.94,6.15,6.74,14.45,4.94,22.75-.41,1.91-1.01,3.75-1.76,5.5,23.73,5.36,45.84,16.55,64.21,32.3v-9.8s50.59,40.85,50.59,40.85l1.1-25.66,16.73,21.61c5.03,6.5,10.31,12.86,15.81,19.03l7.97,1.25ZM491.93,450.52c2.3,1.24,4.49,2.71,6.52,4.39l7.26,5.98-5.52,7.61c-12.48,17.22-29.46,30.1-45.87,42.57-20.09,15.26-39.07,29.67-48.44,50.55-5.84,13.01-7.43,28.04-7.8,42.71,3.86-7.78,9.75-18.2,21.9-19.2l6.07-.5,36.49-42.14-.79,25.3,51.57-42.12-.72,10.78c18.19-14.96,39.76-25.73,62.75-31.15-2.82-6.28-3.24-13.7-1.03-20.86,1.77-5.72,5.05-10.61,9.33-14.1-5.33-18.59-13.76-31.05-25.09-37.09-5.38-2.86-11.61-4.32-18.51-4.32-7.49,0-15.41,1.73-22.9,5.01-9.11,3.99-17.46,9.93-25.22,16.58ZM370.68,553.22l-.39-1.21v-.03s.46.88.46.88l-.47-.99.04-.07-.04-.07v.13s0-.02,0-.02v-.14s-.02-.01-.02-.01l-.03.05-.02-.05.03-.04-.05-.07v.09s0-.11,0-.11l-.08-.12.02.03-.04-.12.04-.04-.04-.22-.07.05-.05-.15.04.16-.04.03-.19-.41h0s.14.39.14.39l-.24-.36h0s.1.19.1.19l.16.22-.03.02.1.19h0s.03.07.03.07l.02.04h0s.08.22.08.22v-.02s.03.07.03.07h0s.03.08.03.08l.02.1h0s.03.06.03.06l.02.18.03.1v.11s.09.7.09.7l-.05-.66.13.53-.15-.76v-.04s.37.99.37.99ZM302.91,552.39l.05-.12-.02-.04-.05.1.03.05ZM302.73,552.32l-.07-.25h0s-.08-.18-.08-.18l.08.22h0s.02.07.02.07l.05.13ZM303.02,552.11l.04-.11h-.01s-.05.09-.05.09l.02.02ZM302.88,551.91l.06-.06-.27-.32v.11s.21.27.21.27ZM303.07,551.73l.13-.12-.57-.47.02.17.42.42ZM302.54,551.66l-.04-.15-.11-.19.03.1.12.24ZM370.24,551.65l.02-.03-.02-.26-.07.08.02.13.06.08ZM370.17,551.56l-.02-.1-.03.03.05.07ZM302.43,551.29l-.02-.07-.11-.13v.03s.13.17.13.17ZM303.44,551.08l.08-.21-.48-.15-.48-.06v.04s.87.38.87.38ZM302.35,551.01l-.04-.14-.12-.1.04.12.12.12ZM379.34,550.95c.06-.4.09-.8.09-1.2h-4.68s-1.88.17-1.88.17l6.46,1.03ZM302.1,550.76l-.04-.1-.05-.04.05.1.04.04ZM302.47,550.65h0s-.04-.02-.04-.02l.05.02ZM301.96,550.62l-.03-.05h-.01s.02.03.02.03l.02.02ZM211.63,443.08l.49.76-.4-.81-.09.05ZM370.27,551.95l.02.03v.02l-.02-.05ZM370.28,551.89h0s0,.08,0,.08v-.08ZM370.06,551.39h0Z"/>
      <path class="cls-11" d="M464.72,126.67c29.45,0,58.94,8.6,83.51,24.89,22.66,15.02,40.9,36.03,55.29,59.09,48.45,77.63,51.98,181.24,8.92,261.99,10.04,6.6,12.94,22.16,5.48,31.57-3.81,4.81-9.96,7.26-16.06,7.26s-11.65-2.26-15.3-6.86c-7.47-9.41-2.8-25.83,8.68-29.38-4.58-20.14-13.73-41.1-31.96-50.81-7.15-3.81-15.13-5.49-23.21-5.49-9.18,0-18.5,2.17-26.92,5.86-15.84,6.94-29.05,18.68-41.37,30.81.23,0,.45,0,.68,0,7.09,0,14.17,2.53,19.65,7.04-26.55,36.61-76.82,53.63-95.34,94.89-8.92,19.88-8.91,42.45-8.75,64.23,1.28.72,2.58,1.04,3.89,1.04,5.59,0,11.13-5.88,13.89-11.5,3.42-6.94,7.3-15.56,15.01-16.2.29,3.29.58,6.57.87,9.86,10-11.55,20-23.09,29.99-34.64-.2,6.37-.4,12.74-.59,19.11,16.92-13.81,33.83-27.63,50.75-41.44-.31,4.65-.62,9.29-.93,13.94,20.24-23.76,48.38-40.66,78.86-47.36-9.12,50.98-51.2,94.46-101.86,105.24,5.34.53,10.54,2.36,15.03,5.29-9.74,4.09-20.31,6.21-30.88,6.21-.71,0-1.42,0-2.14-.03,5.15,2.32,9.53,6.31,12.33,11.21-24.43-2.33-48.86-4.66-73.29-7-1.48-.14-3.03-.25-4.59-.25-4.68,0-9.33.95-11.72,4.72-9.7,15.31-27.45,25.19-45.57,25.36-.17,0-.33,0-.5,0-17.95,0-35.65-9.49-45.56-24.47-3.07-4.64-8.78-5.86-14.6-5.86-2.22,0-4.46.18-6.57.41-22.57,2.48-45.14,4.97-67.72,7.45,1.18-5.55,6.03-10.12,11.64-10.98-.56.02-1.12.02-1.68.02-10.76,0-21.52-2.89-30.82-8.3,4.61-1.24,9.21-2.49,13.82-3.73-50.58-10.96-92.55-54.37-101.78-105.29,30.39,6.42,58.46,23.39,78.26,47.32,0-4.42,0-8.83,0-13.25,16.58,13.39,33.15,26.78,49.73,40.16.26-6.05.52-12.11.78-18.16,9.27,11.98,19.28,23.39,29.96,34.13.06-3.37.11-6.73.17-10.1,7.68,1.21,11.4,9.72,14.96,16.63,2.91,5.64,8.51,11.45,14.22,11.45,1.29,0,2.58-.3,3.85-.96-.15-24.06-.56-49.21-11.85-70.46-20.35-38.31-69.98-53.24-91.89-90.68,5.88-2.94,12.45-4.48,19.03-4.48.19,0,.39,0,.58,0-14.84-18.43-35.63-33.27-59.14-35.92-2.17-.24-4.36-.36-6.55-.36-21.59,0-43.63,11.65-51.78,31.53-4.24,10.32-4.23,23.09,2.76,31.79,6.64,8.27,3.11,22.26-6.36,27.03-2.53,1.27-5.29,1.86-8.07,1.86-7.65,0-15.45-4.46-18.86-11.44-4.65-9.53-1.09-22.04,7.42-28.36-43.16-80.6-39.56-184.22,9.07-261.64,15.08-24,34.38-45.75,58.35-60.88,23.95-15.12,52.28-23.04,80.58-23.04,11.51,0,23.02,1.31,34.22,3.98,38.75,9.24,73.38,34.63,93.85,68.81,20.77-34.69,56.13-60.32,95.56-69.26,10.69-2.42,21.63-3.61,32.58-3.61M254.3,145.82c-2.26-.71-4.54-1.37-6.83-1.98,2.29.6,4.57,1.26,6.83,1.98M267.64,150.71c-2.18-.92-4.39-1.78-6.61-2.6,2.22.82,4.43,1.68,6.61,2.6M567.48,185.38c-4.85-5.19-10.01-10.08-15.47-14.58,5.47,4.5,10.62,9.39,15.47,14.58M312.64,179.03c-1.79-1.57-3.61-3.1-5.45-4.59,1.85,1.49,3.67,3.02,5.45,4.59M334.72,202.42c.71.91,1.41,1.82,2.1,2.74-.69-.92-1.39-1.83-2.1-2.74-.02-.03-.05-.06-.07-.09-5.85-7.49-12.34-14.5-19.35-20.92,7.01,6.42,13.5,13.43,19.35,20.92.02.03.05.06.07.09M490.14,183.7c-51.33,48.91-102.66,97.83-153.99,146.74l153.99-146.74M577.89,197.54c-2.2-2.8-4.48-5.54-6.83-8.21,2.35,2.67,4.63,5.41,6.83,8.21M180.75,378.68l3.1-181.7s0,0,0,0c-1.03,60.57-2.07,121.13-3.1,181.7M61.62,258.1c.61-1.62,1.24-3.23,1.88-4.83-.65,1.6-1.27,3.21-1.88,4.83M177.53,254.71c-.5,7.92-.96,15.84-1.37,23.76.42-7.92.88-15.84,1.37-23.76M57.06,271.21c-.52,1.66-1.04,3.31-1.53,4.98-.02.05-.03.11-.05.16.02-.05.03-.11.05-.16.49-1.67,1-3.33,1.53-4.98M52.16,288.91c.12-.51.25-1.03.37-1.54-.13.51-.25,1.03-.37,1.54M49.91,299.32c-.1.51-.2,1.02-.29,1.53.1-.51.19-1.02.29-1.53M172.14,376.77c.56-.94.89-1.99.9-3.16.15-11.9.39-23.8.72-35.69.22-7.93.48-15.86.78-23.79-.3,7.93-.56,15.86-.78,23.79-.33,11.89-.57,23.79-.72,35.69-.01,1.17-.35,2.22-.9,3.16M333.08,331.31c-.34-.25-.66-.53-.98-.8.32.28.64.55.98.8M335.93,332.6s.02,0,.03,0c.16.02.32.03.48.03h0c.09,0,.17,0,.25,0,.02,0,.03,0,.05,0-.02,0-.03,0-.05,0-.08,0-.17,0-.25,0h0c-.16,0-.32,0-.48-.03,0,0-.02,0-.03,0-.02,0-.05,0-.07,0-.41-.06-.8-.17-1.18-.33.38.16.77.27,1.18.33.02,0,.05,0,.07,0M45.46,336.54c-.06,1.36-.12,2.73-.16,4.09.04-1.36.09-2.73.16-4.09,0-.07,0-.13,0-.2,0,.07,0,.13,0,.2M628.03,348.03s0,.08,0,.11c-.03,38.43-8.63,76.82-25.98,111.14-3.5-11.18-10.3-21.25-19.17-28.9,8.87,7.65,15.67,17.72,19.17,28.9,17.35-34.31,25.96-72.71,25.98-111.14,0-.04,0-.08,0-.11,0-.65,0-1.3,0-1.95,0,.65,0,1.3,0,1.95M169.88,379.29c.69-.56,1.3-1.16,1.8-1.83-.5.67-1.11,1.28-1.8,1.83M165.99,381.66c.56-.27,1.11-.55,1.64-.85-.53.3-1.08.59-1.64.85M342.9,415.54c-.2.23-.41.47-.61.7l-5.87,6.71h0c1.96-2.23,3.91-4.47,5.87-6.71l.61-.7c6.18-7.06,12.36-14.12,18.54-21.18,1.44-1.64,3.47-3.38,5.45-3.71-1.98.34-4.01,2.07-5.45,3.71l-18.54,21.18M362.44,398.88h0s-.08,0-.12,0c.04,0,.08,0,.12,0h0s.01,0,.02,0c.63,0,1.34.24,1.97.56,0,0,0,0,0,0,.02,0,.04.02.06.03.02,0,.03.02.05.03.18.09.34.19.5.29l69.69,44.06c-23.23-14.69-46.46-29.38-69.69-44.06-.16-.1-.33-.2-.5-.29-.02,0-.03-.02-.05-.03-.02-.01-.04-.02-.06-.03,0,0,0,0,0,0-.63-.32-1.34-.56-1.97-.56,0,0-.01,0-.02,0h0M310.96,399.22c.61.19,1.09.63,1.49,1.14-.4-.51-.88-.95-1.49-1.14-.15-.05-.3-.07-.45-.09.15.01.3.04.45.09M330.18,428.71c.93,1.49,1.86,2.98,2.79,4.47.02.02.03.05.05.07,0,0,0,.01.01.02,0,0,.01.02.02.02.6.89,1.42,1.27,2.33,1.27,0,0,.01,0,.01,0h0c.08,0,.16,0,.24,0,0,0,.01,0,.02,0,0,0-.01,0-.02,0-.08,0-.16,0-.24,0h0s-.01,0-.01,0c-.91,0-1.73-.38-2.33-1.27,0,0-.01-.02-.02-.02,0,0,0-.01-.01-.02-.02-.02-.03-.05-.05-.07l-2.79-4.47c-5.69-9.13-11.38-18.25-17.07-27.38l17.07,27.38M531.09,416.27c-3.99.7-7.91,1.77-11.69,3.21-.81.31-1.61.63-2.41.98-.74.32-1.48.65-2.21,1-1.02.49-2.03,1.01-3.02,1.55-.35.19-.7.39-1.04.59h0c.35-.2.69-.4,1.04-.59.99-.55,2-1.06,3.02-1.55.73-.35,1.47-.68,2.21-1,.8-.34,1.6-.67,2.41-.98,3.78-1.44,7.7-2.51,11.69-3.21,3.68-.64,7.41-.96,11.14-.96,7.75,0,15.49,1.39,22.71,4.21-7.22-2.82-14.96-4.21-22.71-4.21-3.73,0-7.47.32-11.15.96M224.92,451.59c1.96-.98,3.9-2.02,5.8-3.11,2.86-1.63,5.68-3.37,8.47-5.12-2.8,1.75-5.61,3.49-8.47,5.12-1.91,1.09-3.84,2.14-5.8,3.11M458.89,452.47s-.04,0-.07,0c-.46,0-.91-.12-1.34-.28,0,0,0,0-.01,0-.01,0-.02,0-.03-.01.01,0,.02,0,.03.01,0,0,0,0,.01,0,.43.17.88.27,1.34.28.02,0,.04,0,.07,0,1.05,0,2.01-.49,2.9-1.08.3-.2.6-.42.89-.63-.29.21-.58.43-.89.63-.89.6-1.85,1.08-2.9,1.08M216.1,452.02c.32-.16.63-.34.94-.53-.31.19-.62.38-.94.53M215.09,452.41c-.05.01-.11.03-.16.04-.26.06-.53.09-.8.09h0s-.02,0-.02,0c0,0-.02,0-.03,0,0,0,.02,0,.03,0,0,0,.02,0,.02,0h0c.27,0,.54-.03.8-.09.05-.01.11-.02.16-.04,0,0,.02,0,.03,0,0,0-.02,0-.03,0M232.5,506.15c-17.24-12.96-32.87-28.63-48.05-44.02,9.5-1.37,19.08-2.75,28.22-5.6-9.13,2.85-18.72,4.23-28.22,5.6,15.18,15.39,30.81,31.06,48.05,44.02M74.83,481.8c-.25-.12-.51-.23-.77-.33.26.09.52.21.77.33M63.53,483.88c.34-.35.71-.68,1.1-.98.39-.3.8-.56,1.23-.8-.43.23-.84.5-1.23.8-.39.3-.76.62-1.1.98M79.57,486.3c.25.41.49.84.7,1.27,0,0,0,.01.01.02,0,0,0-.01-.01-.02-.21-.44-.45-.86-.7-1.27-.49-.81-1.06-1.57-1.7-2.26.64.69,1.21,1.46,1.7,2.26M63.38,484.06c-.39.42-.74.89-1.05,1.37-.01.02-.02.03-.03.05.01-.02.02-.03.03-.05.32-.48.66-.95,1.05-1.37M610.9,485.72c.72,1,1.27,2.12,1.58,3.32.16.61.26,1.23.29,1.85,0,0,0,.02,0,.03.01.19.02.38.02.57,0,.13,0,.26,0,.39,0-.13,0-.26,0-.39,0-.19,0-.38-.02-.57,0,0,0-.02,0-.03-.04-.62-.13-1.24-.29-1.85-.31-1.2-.86-2.32-1.58-3.32-.02-.03-.05-.06-.07-.1.02.03.05.06.07.1M591.52,491.71c0-1.28.27-2.54.74-3.72-.48,1.18-.74,2.44-.74,3.72M81.29,490.5c.09.43.15.88.18,1.32.01.2.02.39.02.59,0,.13,0,.27,0,.4,0-.13,0-.27,0-.4,0-.19,0-.39-.02-.59-.03-.44-.09-.88-.18-1.32,0-.04-.02-.09-.03-.13,0,.04.02.09.03.13M612.55,493.76c.13-.6.21-1.2.23-1.81-.03.61-.1,1.21-.23,1.81M80.6,496.28c.34-.74.59-1.51.73-2.3-.14.8-.39,1.57-.73,2.3M611.59,496.46c-.29.57-.62,1.12-1,1.63.38-.51.71-1.06,1-1.63M78.83,498.99c-.96,1.06-2.12,1.94-3.41,2.55-1.08.51-2.26.83-3.46.91-.2.01-.39.02-.59.02-.77,0-1.53-.09-2.27-.27-.02,0-.05-.01-.07-.02-.63-.16-1.25-.37-1.85-.64.6.27,1.22.49,1.85.64.02,0,.05.01.07.02.74.18,1.5.27,2.27.27.19,0,.39,0,.59-.02,1.21-.08,2.38-.4,3.46-.91,1.29-.61,2.45-1.49,3.41-2.55.58-.65,1.08-1.37,1.49-2.13-.41.76-.91,1.48-1.49,2.13M66.25,501.07s.04.02.05.03c-.02-.01-.04-.02-.05-.03-.55-.31-1.08-.68-1.58-1.08.5.4,1.03.76,1.58,1.08M126.67,572.85c-13.78-15.52-24.07-34.12-29.27-54.24,5.2,20.11,15.49,38.71,29.27,54.24M284.22,569.94c-3.15-14.44-10.58-27.92-21.04-38.35,10.46,10.44,17.89,23.91,21.04,38.35M405.26,536.73c-2.79,3.34-5.31,6.91-7.52,10.65-.04.06-.07.12-.11.18.03-.06.07-.12.11-.18,2.21-3.75,4.73-7.32,7.52-10.65,1.42-1.69,2.91-3.33,4.46-4.9-1.56,1.57-3.05,3.2-4.46,4.9M384.46,534.6c.4-.15.81-.28,1.22-.38-.42.11-.82.24-1.22.38M383.28,535.1c.26-.12.52-.23.79-.33-.26.11-.53.21-.79.33M382.16,535.7c.22-.13.45-.24.68-.36-.23.12-.46.23-.68.36M381.09,536.4c.2-.14.41-.27.61-.4-.21.13-.41.26-.61.4M292.09,536.97c-.27-.21-.54-.41-.82-.6.28.19.55.39.82.6M380.65,536.75c-.09.07-.19.15-.29.22-.09.07-.19.15-.28.23.09-.08.19-.15.28-.23.09-.07.19-.15.29-.22M292.89,537.61c-.18-.16-.37-.3-.55-.45.19.15.37.3.55.45M379.14,538.06c.17-.17.34-.33.52-.49-.17.16-.35.32-.52.49M293.65,538.3c-.15-.15-.31-.29-.47-.43.16.14.32.28.47.43M379.51,543.69c.41-1.38.92-2.73,1.74-3.83.39-.52.84-.99,1.39-1.37.11-.08.23-.14.34-.21-.11.07-.23.13-.34.21-.54.39-1,.85-1.39,1.37-.82,1.1-1.33,2.45-1.74,3.83M378.75,538.49c-.16.17-.32.34-.47.52.15-.18.31-.35.47-.52M294.37,539.02c-.14-.15-.28-.28-.42-.43.14.14.29.28.42.43M295.06,539.79c-.13-.15-.26-.29-.39-.44.13.14.26.29.39.44M377.57,539.91s-.06.07-.08.11c.03-.04.05-.08.08-.11.11-.15.23-.29.34-.44-.11.15-.23.29-.34.44M295.63,540.51s.04.05.06.08c-.02-.03-.04-.05-.06-.08-.1-.12-.19-.24-.29-.37.1.12.2.24.29.37M376.78,541.1c.12-.2.25-.39.37-.58-.13.19-.26.38-.37.58M296.29,541.42c-.1-.15-.21-.31-.32-.46.11.15.22.3.32.46M376.17,542.22c.1-.2.21-.4.32-.6-.11.2-.22.4-.32.6M296.82,542.28c-.09-.16-.19-.31-.29-.47.1.16.2.31.29.47M297.3,543.17c-.08-.16-.17-.32-.25-.48.09.16.17.32.25.48M375.92,542.77c-.05.1-.09.21-.14.31-.05.1-.09.21-.13.31.04-.11.09-.21.13-.31.05-.1.09-.21.14-.31M297.71,544.08c-.07-.17-.14-.33-.22-.49.07.16.15.33.22.49M375.44,543.96c-.08.21-.15.43-.22.64.07-.22.14-.43.22-.64M297.97,544.77c.03.08.06.17.09.25-.03-.08-.06-.17-.09-.25-.03-.08-.06-.17-.09-.25.03.08.06.17.09.25M375.07,545.18c-.06.22-.11.44-.16.66.05-.22.1-.44.16-.66M298.33,545.97c-.04-.17-.09-.34-.14-.51.05.17.1.34.14.51M298.52,546.94c-.03-.17-.06-.35-.1-.52.04.17.07.34.1.52M374.8,546.43c-.02.15-.05.29-.07.44-.01.07-.02.15-.03.22,0-.07.02-.15.03-.22.02-.15.05-.3.07-.44M369.83,546.52c.12,0,.25-.02.37-.02-.12,0-.25.01-.37.02M370.67,546.51c.06,0,.12,0,.18.01-.06,0-.12,0-.18-.01-.06,0-.12,0-.18,0,.06,0,.12,0,.18,0M369.18,546.61c.12-.02.25-.05.37-.06-.12.02-.25.04-.37.06M371.44,546.61s.03,0,.04,0c-.01,0-.03,0-.04,0-.1-.02-.2-.04-.31-.05.1.01.21.03.31.05M368.73,546.71c-.06.02-.12.04-.18.06.06-.02.12-.04.18-.06.06-.02.12-.04.18-.05-.06.02-.12.03-.18.05M371.98,546.74s.07.02.11.03c-.04-.01-.07-.02-.11-.03-.07-.02-.15-.04-.22-.06.08.02.15.04.22.06M367.93,547.01c.12-.06.24-.11.36-.16-.12.05-.24.1-.36.16M372.5,546.93c.05.02.1.04.15.07-.05-.02-.1-.05-.15-.07-.05-.02-.1-.04-.16-.06.05.02.11.04.16.06M302.68,546.92c-.08,0-.15,0-.23,0,.08,0,.15,0,.23,0,.04,0,.08,0,.12,0-.04,0-.08,0-.12,0M303.21,546.93c.08,0,.16.02.23.02-.08,0-.16-.02-.23-.02-.04,0-.08,0-.12,0,.04,0,.08,0,.12,0M302.16,546.96c-.11.01-.22.02-.33.04.11-.02.22-.03.33-.04M303.9,547.02c.06.01.12.03.18.04-.06-.01-.12-.03-.18-.04-.06-.01-.12-.02-.18-.03.06,0,.12.02.18.03M301.38,547.1c-.05.01-.11.03-.16.04.05-.02.1-.03.16-.04.05-.01.11-.03.16-.04-.05.01-.11.02-.16.04M367.33,547.34c.12-.08.24-.16.37-.23-.13.07-.25.15-.37.23M304.71,547.24c-.12-.04-.23-.08-.35-.11.12.03.23.07.35.11M373.18,547.29c-.09-.06-.18-.12-.28-.17.1.05.19.11.28.17M300.85,547.26c-.07.02-.13.05-.2.08.06-.03.13-.05.2-.08.03-.01.07-.02.1-.04-.03.01-.07.02-.1.04M305.31,547.49c-.11-.06-.23-.11-.34-.16.12.05.23.11.34.16M298.63,547.92c-.01-.18-.03-.35-.05-.53.02.17.04.35.05.53M373.52,547.54s.08.07.12.1c-.04-.04-.08-.07-.12-.1-.04-.03-.08-.07-.12-.1.04.03.08.07.12.1M367.16,547.45c-.09.06-.17.13-.25.2-.08.07-.16.14-.24.22-2.48,2.47-2.67,6.36-2.78,9.87.11-3.5.29-7.39,2.78-9.87.08-.08.15-.15.24-.22.08-.07.17-.13.25-.2M300.13,547.61c.09-.05.18-.1.27-.15-.09.05-.18.1-.27.15M305.89,547.83c-.11-.08-.23-.16-.35-.23.12.07.24.15.35.23M374.64,547.7c0,.07-.01.15-.02.22-.01.15-.02.3-.02.45,0-.15.01-.3.02-.45,0-.07.01-.15.02-.22M297.52,553.56s.04.03.07.05c-.02-.02-.04-.03-.07-.05-1.83-1.33-2.42-3.52-2.83-5.85.41,2.34,1,4.53,2.83,5.85M299.9,547.76c-.08.06-.16.12-.24.18.08-.06.15-.12.24-.18M373.92,547.94s.07.08.1.12c-.03-.04-.06-.08-.1-.12-.03-.04-.07-.08-.1-.12.04.04.07.08.1.12M306.54,548.36c2.36,2.44,2.54,6.17,2.63,9.57,0,.05,0,.11,0,.16,0-.05,0-.11,0-.16-.09-3.4-.27-7.13-2.63-9.57-.15-.15-.31-.29-.47-.42.17.13.33.27.47.42M299.47,548.13c-.07.07-.13.14-.2.22.06-.07.13-.15.2-.22M374.32,548.54c-.05-.09-.09-.19-.15-.27.06.09.1.18.15.27M298.66,548.78s0,.09,0,.13c0-.04,0-.09,0-.13,0-.13,0-.26,0-.4,0,.13,0,.26,0,.4M298.95,548.8c.05-.09.1-.17.15-.25-.06.08-.11.16-.15.25M374.48,548.92c.02.05.03.1.04.16-.01-.05-.03-.1-.04-.16-.02-.05-.03-.1-.05-.15.02.05.04.1.05.15M374.61,549.4s-.01-.05-.02-.07c.01.06.02.13.03.19,0,.12.01.25.02.37,0-.13,0-.25-.02-.37,0-.18,0-.36-.01-.54,0,.14,0,.28,0,.42M298.77,549.21s-.03.08-.04.11c.01-.04.02-.08.04-.11.02-.06.04-.11.07-.17-.02.05-.05.11-.07.17M369.43,549.77s0,.06,0,.09c0-.03,0-.06,0-.09,0-.13,0-.26.03-.39h0c-.02.13-.03.26-.03.39M298.61,549.84c-.01.08-.02.17-.03.26.01-.09.02-.17.03-.26.01-.08.03-.17.05-.25,0,.04-.02.07-.03.11.01-.11,0-.22.02-.33,0,.15-.02.31-.03.47M385.3,614.94c1.36-14.21.24-28.68,2.97-42.69.85-4.34,2.07-8.6,3.64-12.73.66-1.74,1.4-3.46,2.19-5.15-.78,1.69-1.52,3.41-2.19,5.15-1.57,4.13-2.8,8.39-3.64,12.73-2.73,14.02-1.61,28.48-2.97,42.69M185.58,564.37c.53.44,1.07.88,1.6,1.32-.53-.44-1.07-.88-1.6-1.32-3.73-3.1-7.41-6.25-11.05-9.46h0c3.64,3.21,7.32,6.36,11.05,9.46M497.05,561.68c.52-2.12,1.21-4.2,2.05-6.21-.85,2.01-1.53,4.09-2.05,6.21M543.47,575.99c3.06-3.23,5.96-6.6,8.69-10.1-2.73,3.5-5.63,6.87-8.69,10.1M362.11,580.16c.32-2.48.6-4.97.84-7.46-.24,2.49-.52,4.98-.84,7.46M424.42,605.79c8.18-8.16,15.9-16.77,23.11-25.79-.38,5.4-.77,10.8-1.15,16.2h0s1.15-16.2,1.15-16.2c-7.21,9.02-14.93,17.63-23.11,25.79M512.21,600.67c2.56-1.48,5.08-3.04,7.54-4.68,3.69-2.46,7.27-5.11,10.71-7.92,2.29-1.87,4.53-3.82,6.7-5.84-2.17,2.02-4.4,3.96-6.7,5.84-3.44,2.81-7.02,5.45-10.71,7.92-2.46,1.64-4.98,3.2-7.54,4.68M357.29,605.97c1.19-4.86,2.23-9.75,3.11-14.68.44-2.46.84-4.93,1.2-7.41-.36,2.48-.76,4.95-1.2,7.41-.88,4.93-1.92,9.82-3.11,14.68M146.19,590.98c-2.36-1.8-4.65-3.68-6.89-5.62,2.24,1.95,4.53,3.82,6.89,5.62M215,587.03c4.02,2.86,8.08,5.67,12.18,8.41h0c-4.1-2.74-8.17-5.55-12.18-8.41-.49-.35-.99-.7-1.48-1.06.49.35.99.71,1.48,1.06M459.42,612.13c5.23-3.24,10.16-6.93,14.67-11.2.31-.3.63-.63.91-1,.85-1.09,1.39-2.39.67-3.46,0,0,0,0,0,0,.73,1.07.18,2.37-.66,3.46-.28.36-.6.7-.91,1-4.51,4.27-9.44,7.96-14.67,11.2M197.69,598.41c.04-.55.31-1,.92-1.25,6.55,3.47,13.28,6.6,20.15,9.39.28.11.56.23.84.34,4.3,1.73,8.65,3.32,13.04,4.77-4.4-1.45-8.75-3.04-13.04-4.77-.28-.11-.56-.23-.84-.34-6.87-2.79-13.6-5.93-20.15-9.4-.61.24-.88.7-.92,1.25M418.36,598.03c-.75,3.96-1.49,7.92-2.24,11.88l2.24-11.88M266.01,614.58c.94,1.88,1.81,3.79,2.59,5.73h0c-.79-1.95-1.65-3.86-2.59-5.73-.01-.03-.03-.06-.04-.09-2.4-4.76-5.28-9.27-8.6-13.44,3.32,4.17,6.21,8.68,8.6,13.44.01.03.03.06.04.09M477.61,614.48c.61-.17,1.22-.32,1.82-.48,10.06-2.53,19.76-6.32,28.89-11.18-9.13,4.86-18.83,8.65-28.89,11.18-.6.15-1.22.3-1.82.48M172.84,606.87c-2.7-1.21-5.36-2.51-7.98-3.9,2.61,1.39,5.28,2.69,7.98,3.9M216.84,608.36c.09.04.18.08.27.12-.09-.04-.18-.08-.27-.12-2.8-1.29-5.57-2.64-8.3-4.07,2.73,1.42,5.5,2.78,8.3,4.07M435.06,619.71c2.11-.75,4.22-1.52,6.31-2.33,8.24-3.17,16.46-6.87,23.04-12.77-6.57,5.9-14.8,9.6-23.04,12.77-2.09.8-4.2,1.58-6.31,2.33M408.28,612.51c1.23-2.28,2.56-4.5,4.02-6.64-1.45,2.14-2.78,4.36-4.02,6.64M210.28,606.07c1.77,1.64,3.74,3.03,5.83,4.26-2.09-1.23-4.07-2.62-5.83-4.26-.01-.01-.03-.03-.04-.04.01.01.03.03.04.04M416.95,612.21c.05,0,.11.01.16.01,0,0,0,0,0,0h0s0,0,0,0c.02,0,.04,0,.05,0,0,0,.01,0,.02,0,0,0-.01,0-.02,0-.02,0-.04,0-.05,0,0,0,0,0,0,0,0,0,0,0,0,0-.05,0-.11,0-.16-.01,0,0-.01,0-.02,0,0,0,.01,0,.02,0M336.09,614.03h0s0,0,0,0c-1.31,0-2.62.04-3.93.13-.04,0-.09,0-.13,0-1.5.1-3,.26-4.5.47-2.22.31-4.42.75-6.6,1.31-.02,0-.03,0-.05.01.02,0,.03,0,.05-.01,2.17-.56,4.38-1,6.6-1.31,1.49-.21,2.99-.37,4.5-.47.04,0,.09,0,.13,0,1.31-.08,2.62-.13,3.93-.13,0,0,0,0,0,0,0,0,0,0,0,0,.07,0,.15,0,.22,0,.08,0,.15,0,.23,0-.08,0-.15,0-.23,0-.07,0-.15,0-.22,0,0,0,0,0,0,0h0M423,616.71c2.72-.67,5.42-1.4,8.11-2.16-2.69.77-5.39,1.5-8.11,2.16M314.67,614.81c0,1.05-.09,2.07-.3,3.04-.27,1.22-.74,2.34-1.46,3.31.72-.97,1.19-2.08,1.46-3.31.21-.96.3-1.98.3-3.04,0-.07,0-.14,0-.21,0,.07,0,.14,0,.21M232.42,617.63c-2.51-.96-5-1.97-7.48-3.02,2.48,1.05,4.97,2.05,7.48,3.02M197,615.03c-.38-.14-.77-.26-1.17-.38.39.11.78.24,1.17.38M349.98,615.63c-1.47-.34-2.95-.63-4.44-.87,1.49.23,2.97.52,4.44.87M358.25,618.19c1.32,1,2.53,2.13,3.62,3.35.84.94,1.62,1.94,2.32,2.99-.71-1.05-1.48-2.05-2.32-2.99-1.1-1.23-2.31-2.35-3.62-3.35-.03-.02-.06-.05-.1-.07.03.02.06.05.1.07M335.4,618.42s.02,0,.03,0c-.01,0-.02,0-.03,0M327,619.07c1.04-.22,2.1-.36,3.17-.45-1.06.1-2.12.24-3.17.45M348.73,619.76c-.38-.13-.76-.25-1.14-.36-.6-.17-1.21-.3-1.82-.41.61.11,1.22.24,1.82.41.39.11.77.23,1.14.36M287.03,631.46h0c-17.33-2.26-34.41-6.43-50.83-12.42,16.42,5.98,33.5,10.16,50.83,12.42M201.69,620.3s0,0,0,.01c0,0,0,0,0-.01-.01-.29-.05-.59-.11-.89.06.29.1.59.11.89M319.14,622.43c.66-.45,1.34-.87,2.04-1.25.7-.38,1.43-.72,2.17-1.02-.74.3-1.46.64-2.17,1.02-.7.38-1.39.8-2.04,1.25M244.38,626.05c-.17-.06-.35-.11-.52-.17.17.06.35.11.52.17M284.77,625.96c.62.2,1.2.48,1.71.88.53.41.93,1.01,1.15,1.65-.22-.64-.63-1.24-1.15-1.65-.51-.4-1.09-.68-1.71-.88-.01,0-.03,0-.04-.01.01,0,.03,0,.04.01M211.28,636.8l14.32-8.72h0c-4.78,2.91-9.55,5.81-14.32,8.72M387.98,631.27c-.08,0-.16,0-.24,0,.08,0,.16,0,.24,0h0c.5,0,1-.05,1.47-.13,2.99-.46,5.97-.99,8.94-1.55-2.97.56-5.95,1.1-8.94,1.55-.47.07-.98.13-1.47.13M385.42,630.21c.3.45.73.72,1.22.88-.5-.16-.93-.43-1.22-.88,0-.01-.01-.02-.02-.03,0,.01.01.02.02.03M449.88,637.29c3.72,0,7.44-.12,11.15-.37,0,0,0,0,0,0-3.71.25-7.43.37-11.15.37-10.99,0-21.98-1.09-32.76-3.24-2.22-.44-4.43-.93-6.63-1.46,2.2.53,4.41,1.02,6.63,1.46,10.78,2.15,21.77,3.24,32.76,3.24M379.94,637.12c.63-1.44,1.21-2.91,1.72-4.42-.51,1.5-1.09,2.97-1.72,4.42M293.69,638.12c-.24-.52-.46-1.04-.68-1.57.22.53.45,1.05.68,1.57M305.3,650.22c-1.19-4.04-2.01-8.19-1.81-12.38-.2,4.19.62,8.34,1.81,12.38M375.61,645.05c1.02-1.49,1.96-3.06,2.8-4.69-.85,1.63-1.78,3.19-2.8,4.69M308.56,643.08c0,.12,0,.25,0,.37,0,.73.03,1.47.08,2.2-.05-.73-.08-1.46-.08-2.2,0-.12,0-.25,0-.37,0-.03,0-.06,0-.08,0,.03,0,.06,0,.08M368.27,653.04s-.03.02-.05.04c-.69.55-1.4,1.07-2.13,1.56h0c.73-.5,1.44-1.02,2.13-1.56.02-.01.03-.02.05-.04.01,0,.02-.02.03-.03,1.42-1.14,2.74-2.38,3.95-3.71-1.22,1.33-2.53,2.58-3.95,3.71-.01,0-.02.02-.03.03M303.6,652.2c-1-.92-1.96-1.87-2.85-2.88.89,1.01,1.85,1.97,2.85,2.88M309.69,651.66c.48,1.58,1.2,3.08,2.39,4.19.99.91,2.22,1.49,3.5,1.95.03.01.06.02.09.03.01,0,.02,0,.03.01,0,0,0,0,0,0,0,0,.02,0,.02,0,0,0,.02,0,.03,0,0,0,.01,0,.02,0,.02,0,.03.01.05.02,0,0,0,0,.01,0,.15.05.31.1.46.15.04.01.08.03.13.04.08.03.16.05.24.08-.08-.03-.16-.05-.24-.08-.04-.01-.08-.03-.13-.04-.15-.05-.31-.1-.46-.15,0,0,0,0-.01,0-.02,0-.03-.01-.05-.02,0,0-.01,0-.02,0,0,0-.02,0-.03,0,0,0-.02,0-.02,0,0,0,0,0,0,0-.01,0-.02,0-.03-.01-.03-.01-.06-.02-.09-.03-1.28-.46-2.51-1.03-3.5-1.95-1.2-1.11-1.91-2.61-2.39-4.19-.02-.05-.03-.1-.05-.15.02.05.03.1.05.15M361.85,654.88c.63-.87,1.06-1.89,1.37-2.95-.32,1.06-.75,2.08-1.37,2.95M306.11,654.3c.23.18.46.36.69.53-.24-.17-.47-.35-.69-.53-.18-.15-.37-.29-.55-.44.18.15.37.29.55.44M347.55,660.19c-3.71.64-7.48.97-11.25.97h0c-1.35,0-2.7-.04-4.04-.12-.05,0-.1,0-.14,0-.04,0-.08,0-.12,0-2.6-.17-5.19-.49-7.74-.97,2.56.48,5.15.8,7.74.97.04,0,.08,0,.12,0,.05,0,.1,0,.14,0,1.34.08,2.69.12,4.04.12h0c3.77,0,7.54-.32,11.25-.97,3.42-.59,6.79-1.46,10.07-2.6-3.28,1.14-6.65,2-10.07,2.6M464.72,106.67c-12.54,0-24.98,1.38-37,4.11-21.96,4.98-43.43,14.76-62.09,28.28-10.67,7.73-20.46,16.71-29.05,26.6-8.38-9.64-17.89-18.42-28.24-26.01-18.3-13.42-39.38-23.23-60.97-28.38-12.6-3-25.67-4.53-38.86-4.53-32.62,0-64.17,9.04-91.25,26.13-24.65,15.56-46.39,38.16-64.61,67.15-25.74,40.97-40.26,89.23-42.01,139.57-1.58,45.64,7.43,90.3,26.15,130.03-6.86,12.08-7.86,27.13-1.67,39.82,6.62,13.56,21.42,22.67,36.83,22.67,1.62,0,3.24-.1,4.84-.3,6.74,23.7,19.54,45.71,37.51,64.29,6.82,7.05,14.15,13.38,21.91,18.93l-6.48,1.75,41.48,24.1c3.18,1.85,6.46,3.47,9.84,4.86l-4.27,20.01,27.52-3.03,33.86-3.72,33.86-3.72c1.78-.2,3.21-.29,4.39-.29.03,0,.07,0,.1,0,13.91,18.79,36.59,30.33,60.07,30.33.23,0,.46,0,.69,0,23.13-.23,45.26-11.59,59.05-29.99.23.02.47.04.73.06l73.29,7,38.4,3.67-11.98-20.99c1.32-.49,2.62-1,3.91-1.54l34.74-14.58-10-6.53c34.06-19.97,60.41-53.15,71.05-91.27,1.77.22,3.57.34,5.4.34,12.5,0,24.37-5.55,31.73-14.84,6.93-8.74,9.83-20.42,7.96-32.04-.86-5.35-2.67-10.4-5.27-14.92,18.59-39.72,27.55-84.32,26-129.87-1.71-50.35-16.17-98.67-41.8-139.74-17.37-27.83-37.96-49.76-61.21-65.17-27.44-18.2-61.03-28.22-94.56-28.22h0ZM303.73,407.18l6.49-5.08-.11,1.1-6.39,3.98h0ZM213.24,445.5l-3.37-12.4,3.37,12.4h0ZM508.55,450.26c4.07-2.81,8.27-5.26,12.62-7.16,6.23-2.73,12.77-4.17,18.89-4.17,5.25,0,9.9,1.06,13.82,3.14,8.97,4.77,14.74,15.09,18.41,25.52-3.31,3.97-5.89,8.67-7.5,13.89-1.72,5.56-2.23,11.27-1.6,16.74-13.79,4.19-26.98,10.19-39.19,17.78l.84-12.66-35.66,29.13-16.74,13.67.98-31.5-36.86,42.57-15.39,17.77-2.01.17c-2.32.19-5.04.69-7.94,1.75.96-3.89,2.2-7.64,3.8-11.2,8.33-18.56,26.32-32.22,45.36-46.68,16.99-12.9,34.56-26.24,47.92-44.66l11.04-15.23-10.78-8.88h0ZM109.53,498.07c1.19-10-1.47-19.8-7.55-27.36-1.51-1.88-1.87-6.76.15-11.68,4.55-11.08,18.54-19.12,33.28-19.12,1.45,0,2.91.08,4.32.24,6.02.68,12.16,2.59,18.17,5.59l-15.5,2.23,20.9,21.18.95,1.62c12.75,21.79,32,36.15,50.61,50.04,16.75,12.5,32.57,24.3,40.88,39.93,2.59,4.88,4.47,10.22,5.83,15.83-1.93-.73-4-1.29-6.24-1.64l-4.41-.69c-4.5-5.16-8.85-10.44-13.02-15.83l-33.45-43.22-1.42,33.15-1.17-.94-17.71-14.3-32.56-26.3v10.76c-12.96-8.48-27.14-15.07-42.05-19.48h0ZM214.12,448.74l-.49-1.8.49,1.8h0ZM64.48,485.08s.1-.09.15-.14l4.14,4.01-.12-.03-4.17-3.84h0ZM608.05,491.74h0s1.05,0,1.05,0l2.41.09s0,.05,0,.07l-3.47-.15h0ZM71.55,491.79l.05-.02-.14.31.4.18-.13-.02-.27-.15-.04.09h-.07s.06-.12.06-.12h-.03s0-.02,0-.02h.03s.15-.25.15-.25h0ZM71.37,492.05l-.12-.06.12.06h0ZM69.73,492.67l.36-.17-.12.32-.35.08.11-.23h0ZM68.95,493.04l.11-.05v.03s-.11.03-.11.03h0ZM388.84,546.83l-.24-.45.07.02.2.43h-.04ZM388.93,546.82l-.16-.39h.03s.14.38.14.38h-.01ZM388.97,546.81l-.09-.35.78.23-.69.12h0ZM388.28,546.93l-.27-.44.36.42-.09.02h0ZM389.05,547.11v-.03s.04.12.04.12l-.04-.09h0ZM389.12,547.36l-.02-.07.1.2.02.06-.1-.19h0ZM389.18,547.62l-.03-.12.12.2.05.13-.13-.21h0ZM389.27,547.66v-.02s.02.05.02.05l-.02-.03h0ZM389.24,547.83l-.02-.09.15.2.03.08-.15-.2h0ZM389.38,547.92l-.05-.13.06.1.08.16-.08-.12h0ZM389.3,548.08l-.03-.11.17.2.04.1-.18-.19h0ZM389.54,548.18l-.09-.17.24.4-.15-.23h0ZM389.46,548.11l-.03-.08.09.12.03.07-.09-.12h0ZM389.36,548.29l-.03-.1.19.18.03.09-.19-.18h0ZM389.55,548.35l-.04-.1.1.12.05.1-.11-.12h0ZM389.62,548.33l-.03-.06.11.15.02.03-.1-.12h0ZM303.38,551.47l.1-.14h0s-.11.14-.11.14h0ZM303.2,551.74l.04-.06h0s-.09.17-.09.17h0s.05-.11.05-.11h0ZM370.14,551.75v-.02s0,.02,0,.02h0ZM370.21,552.03h0s0,0,0,0h0ZM389.82,548.8l.02.05h-.06s.04.02.04.02h.03s.01.02.01.02h.06s-.02-.03-.02-.03h0s0,0,0,0h0s-.01-.01-.01-.01l-.07-.05h0ZM390,548.84h0s0,.01,0,.01h-.01ZM390.57,549.39l.13.11.21.15-.29-.22-.05-.03h0Z"/>
    </g>
  </g>
  <g id="Layer_1" data-name="Layer 1">
    <path class="cls-6" d="M374.37,549.4c-.47-3.1-5.57-3.89-7.94-1.54-2.48,2.47-2.67,6.36-2.78,9.87-.62,20-3.84,39.92-9.56,59.1-11.5-3.64-24.09-3.73-35.64-.26-5.81-18.94-9.02-38.67-9.53-58.47-.09-3.44-.24-7.26-2.63-9.73-2.3-2.38-7.38-1.76-7.92,1.34.48-5.27-2.97-10.32-7.35-13.34-4.49-3.1-9.87-4.55-15.04-6.3-36.4-12.33-64.78-40.58-91.77-67.93,11.69-1.68,23.51-3.39,34.46-7.82,8.15-3.29,15.63-8.01,23.06-12.71l65.52-41.4c1.05-.66,2.27-1.35,3.45-.99.98.3,1.61,1.24,2.15,2.11l19.86,31.85c2.13,3.41,7.22-.15,9.35-3.56l18.72-30.03c.79-1.27,2.73-.6,3.99.2l69.69,44.06c16.19,10.24,34.82,16.6,53.9,18.4-29.93,30.03-61.91,61.26-102.93,71.96-6.56,1.71-11.42,8.43-11.08,15.18Z"/>
    <path class="cls-2" d="M298.66,516c-1.95-3.89-3.9-7.79-5.84-11.68-.79-1.58-2.36-3.45-3.93-2.65-8.65,4.41-19.41,2.66-27.89-2.06-8.48-4.72-15.17-12.04-21.69-19.23-.87-.96-1.77-1.97-2.09-3.23-.32-1.26.16-2.82,1.37-3.27,1.61-.61,3.16.94,4.2,2.32,5.15,6.8,10.75,13.46,17.91,18.09,7.16,4.63,16.17,7.04,24.37,4.69,1.77-.51,3.58-1.23,5.38-.86,2.56.53,4.14,3.06,5.4,5.35,2.14,3.87,4.35,8.38,2.82,12.54Z"/>
    <path class="cls-2" d="M374.52,515.52c-1.55-1-1.22-3.33-.7-5.1.92-3.14,1.89-6.38,3.98-8.9,2.09-2.52,5.62-4.15,8.7-3.04,8.61,3.09,18.44.47,26.04-4.63,7.6-5.1,13.39-12.41,19.05-19.59,1.12-1.42,3.66.03,3.78,1.83.11,1.8-1.19,3.35-2.41,4.69-6.49,7.08-13.13,14.29-21.54,18.93-8.41,4.64-19.06,6.32-27.6,1.94-1.81-.93-3.59,1.29-4.43,3.15-1.62,3.57-3.24,7.15-4.86,10.72Z"/>
    <path class="cls-3" d="M309.16,456.88c.52,1.09,1.02,2.24,1.02,3.45,0,1.58-.83,3.03-1.68,4.36-5.1,7.96-11.77,14.92-19.51,20.36-.98-.6-1.44-1.78-1.81-2.87-5.87-17.3-7.97-35.88-6.09-54.05.1-.98,1.6-.75,2.43-.23,11.02,7.02,20.02,17.18,25.64,28.98Z"/>
    <path class="cls-2" d="M313.24,455.75c.73,1.55,1.41,3.22,1.24,4.93-.15,1.49-.94,2.84-1.74,4.11-6.34,10.04-14.75,18.76-24.55,25.46-.3.21-.65.42-1.01.36-.5-.08-.76-.63-.94-1.11-7.2-19.68-10.47-40.79-9.57-61.72.06-1.36.2-2.87,1.2-3.8,1.58-1.47,4.13-.59,6.02.45,12.76,7,23.2,18.15,29.36,31.33M309.16,456.88c-5.62-11.8-14.61-21.97-25.64-28.98-.83-.53-2.33-.75-2.43.23-1.88,18.17.21,36.75,6.09,54.05.37,1.09.82,2.27,1.81,2.87,7.74-5.44,14.41-12.4,19.51-20.36.85-1.33,1.69-2.78,1.68-4.36,0-1.21-.51-2.35-1.02-3.45h0Z"/>
    <path class="cls-3" d="M392.04,426.91c-.66,3.27-.2,6.65.04,9.98,1.14,16-2.96,31.86-7.02,47.37-1.99.44-3.92-.88-5.49-2.19-5.5-4.58-10.4-9.87-14.54-15.71-1.54-2.16-3.03-4.67-2.63-7.3.22-1.42.97-2.69,1.71-3.92,7-11.53,15.35-23.37,27.93-28.25Z"/>
    <path class="cls-2" d="M359.46,455.53c6.18-13.36,16.84-24.59,29.86-31.46,1.5-.79,3.35-1.52,4.8-.64,1.41.85,1.67,2.75,1.75,4.39,1.03,20.56-2.12,41.33-9.2,60.66-.2.55-.44,1.14-.93,1.45-.91.58-2.08-.06-2.95-.7-8.53-6.3-16.02-14.02-22.05-22.75-1.31-1.89-2.59-3.97-2.6-6.27,0-1.64.64-3.2,1.32-4.68M392.04,426.91c-12.58,4.88-20.93,16.71-27.93,28.25-.74,1.23-1.5,2.5-1.71,3.92-.4,2.62,1.1,5.13,2.63,7.3,4.14,5.84,9.04,11.13,14.54,15.71,1.57,1.31,3.49,2.63,5.49,2.19,4.07-15.52,8.17-31.37,7.02-47.37-.24-3.33-.7-6.71-.04-9.98h0Z"/>
    <path class="cls-7" d="M347.35,619.4c6.17,1.71,11.31,6.42,14.08,12.18s3.27,12.49,1.96,18.75c-.45,2.13-1.18,4.35-2.87,5.71-.91.73-2.03,1.16-3.13,1.54-13.12,4.55-27.71,4.75-40.95.56-1.64-.52-3.32-1.14-4.58-2.31-1.57-1.46-2.32-3.59-2.79-5.68-1.42-6.25-.84-13.02,2.04-18.75,2.87-5.73,8.11-10.33,14.3-12.02,3.63-.99,7.45-.99,11.22-.98,3.6,0,7.26.02,10.73.99Z"/>
    <path class="cls-3" d="M313.18,606.71c1.47,5.65,2.56,12.96-2.31,16.17-4.85,3.19-7.34,9.16-7.62,14.96-.27,5.8,1.38,11.52,3.31,17-12.28-8.83-17.38-24.68-18.96-39.72-1.57-15.04-.4-30.4-3.62-45.18-3.6-16.51-12.79-31.75-25.71-42.64l29.41,10.16c1.36.47,2.77.96,3.84,1.93,3.91,3.52,1.53,11.19,5.83,14.21l7.68-4.27c.53,19.35,3.27,38.64,8.15,57.37Z"/>
    <path class="cls-3" d="M357.92,618.11l11.31-68.74c-.41,2.63,3.44,4.19,5.73,2.83,2.29-1.37,3.19-4.18,3.85-6.77.66-2.58,1.42-5.4,3.6-6.95.87-.62,1.9-.97,2.92-1.32l29.03-9.84c-13.49,11.43-22.94,27.55-26.33,44.91-2.82,14.47-1.52,29.41-3.1,44.07-1.58,14.65-6.85,30.08-19.07,38.33,6.47-11.93,2.9-28.35-7.94-36.53Z"/>
    <path class="cls-9" d="M341.9,329.58l147.5-133.01c.33,57.54,1.11,115.09,2.35,172.62.1,4.55.71,9.98,4.76,12.06l35.3,18.21-69.37,51.31c-1.15.85-2.42,1.74-3.86,1.72-1.28-.03-2.42-.79-3.48-1.52l-85.86-59.75c-2.6-1.81-5.96.78-8.05,3.16l-25.03,28.59-22.77-26.74c-2.83-3.32-7.43-6.94-11.01-4.44l-84.7,59.13c-1.17.81-2.44,1.66-3.86,1.64-1.42-.02-2.67-.9-3.81-1.75l-68.96-51.14,39.45-20.96,3.1-181.7,147.79,133.11c1.24,1.11,2.58,2.28,4.23,2.5,2.38.32,4.5-1.4,6.28-3.01Z"/>
    <path class="cls-10" d="M319.41,373.72c-.11-1.03.58-1.96,1.23-2.76,5.03-6.15,10.2-12.18,15.51-18.08,5.46,5.73,10.69,11.68,15.68,17.82.58.71,1.18,1.49,1.26,2.41.1,1.1-.58,2.11-1.22,3.01l-15.59,21.77-16.01-22.37c-.39-.54-.79-1.12-.87-1.79Z"/>
    <path class="cls-2" d="M336.34,349.15c.83.03,1.48.67,2.05,1.27,6.24,6.63,12.23,13.49,17.93,20.58.97,1.21,1.95,2.98.94,4.16-6.95,8.17-13.2,16.93-18.66,26.15-.56.95-1.96,1.1-2.95.61-.99-.49-1.68-1.42-2.32-2.32-5.65-7.92-11.29-15.84-16.94-23.75-.54-.76-1.11-1.58-1.16-2.52-.06-1.25.79-2.33,1.6-3.28,5.64-6.6,11.38-13.11,17.23-19.53.62-.68,1.36-1.41,2.27-1.38M319.41,373.72c.07.67.48,1.24.87,1.79,5.34,7.46,10.67,14.91,16.01,22.37,5.2-7.26,10.39-14.51,15.59-21.77.65-.9,1.32-1.91,1.22-3.01-.08-.92-.68-1.69-1.26-2.41-4.99-6.14-10.22-12.09-15.68-17.82-5.31,5.9-10.48,11.93-15.51,18.08-.66.8-1.35,1.73-1.23,2.76h0Z"/>
    <path class="cls-10" d="M298.71,362.34l-84.87,66.75c-7.13-69.13-13.67-138.32-19.62-207.57,4.7,6.87,9.68,13.55,14.65,20.22l89.84,120.59Z"/>
    <path class="cls-2" d="M303.33,366.07c.48.92.97,1.96.71,2.97-.25.97-1.13,1.63-1.95,2.21-28.72,20.33-57.58,40.48-86.57,60.42-1,.69-2.17,1.42-3.36,1.15-1.82-.41-2.35-2.7-2.53-4.55-5.83-62.11-11.65-124.21-17.48-186.32-.91-9.75-1.82-19.69.34-29.24,29.55,39.96,59.11,79.93,88.66,119.89,7.97,10.77,15.97,21.6,22.18,33.47M298.71,362.34c-29.95-40.2-59.9-80.4-89.84-120.59-4.97-6.68-9.95-13.35-14.65-20.22,5.95,69.24,12.5,138.43,19.62,207.57,28.29-22.25,56.58-44.5,84.87-66.75Z"/>
    <path class="cls-10" d="M459.04,429.12l-82.82-64.65c-.71-.56-1.48-1.21-1.58-2.11-.09-.84.44-1.62.95-2.3l103.1-138.45-19.65,207.5Z"/>
    <path class="cls-2" d="M383.6,343.73c32.03-44.03,64.37-87.85,96.99-131.44,1.71,10.74.69,21.71-.33,32.54-5.78,61.25-11.56,122.51-17.34,183.76-.14,1.49-.43,3.22-1.76,3.93-1.46.78-3.21-.19-4.58-1.13-29.71-20.49-59.25-41.22-88.63-62.19,3.85-9.21,9.77-17.38,15.64-25.46M459.04,429.12c6.55-69.17,13.1-138.33,19.65-207.5-34.37,46.15-68.74,92.3-103.1,138.45-.51.68-1.04,1.45-.95,2.3.1.9.87,1.55,1.58,2.11,27.61,21.55,55.21,43.1,82.82,64.65Z"/>
    <path class="cls-8" d="M534.43,158.55c24.39,14.59,43.67,36.66,58.36,60.98,43.16,71.47,46.7,165.25,9.03,239.76-5.6-17.89-19.64-32.94-37.11-39.77-17.46-6.82-37.99-5.28-54.24,4.07l30.4-28.69-31.55-12.11c-4.31-1.66-9.38-4.32-9.46-8.94-1.17-63.47-4.49-126.9-9.95-190.15l-153.99,146.74-153.07-146.91c-5.89,63.19-9.24,126.62-10.04,190.07-.06,4.69-5.18,7.42-9.55,9.13l-30.91,12.09,29.76,28.73c-16.23-9.29-36.68-10.84-54.13-4.1-17.44,6.74-31.54,21.65-37.29,39.44-39.29-77.73-33.18-176.47,15.4-248.76,12.92-19.22,28.76-36.78,48.2-49.37,31.89-20.65,72.51-26.58,109.48-17.79,36.97,8.79,70.03,31.77,92.81,62.18,21.89-30.06,54.12-52.75,90.19-61.76,36.08-9.01,75.75-3.94,107.66,15.14Z"/>
    <path class="cls-5" d="M81.23,491.82c.36,5.28-4.24,10.31-9.52,10.64-5.28.33-10.38-3.87-11.3-9.08-.68-3.87.86-8.09,3.98-10.47,3.12-2.38,7.72-2.72,11.07-.66,1.61.99,2.89,2.45,3.88,4.06,1.03,1.68,1.76,3.56,1.89,5.52Z"/>
    <path class="cls-5" d="M591.28,491.71c0-5.12,4.23-9.9,9.31-10.55,5.08-.65,10.36,2.92,11.66,7.88,1.29,4.96-1.57,10.65-6.32,12.57-4.75,1.92-10.77-.19-13.28-4.66-.89-1.59-1.37-3.42-1.37-5.24Z"/>
    <path class="cls-4" d="M268.37,620.32c-24.41-3.74-48.18-11.6-70-23.15-1.94.78-.47,3.72,1.18,5.01,19.22,15.01,42.19,25.18,66.22,29.33-17.76,4.86-36.35,6.66-54.71,5.3l14.32-8.72-34.69-1.65c-.22-1.83,2.13-2.87,3.97-2.77,1.84.1,3.86.67,5.41-.34,2.01-1.31,1.7-4.59.02-6.31-1.68-1.72-4.17-2.31-6.5-2.89-46.08-11.46-84.52-49.53-96.42-95.51,31.22,9.3,59.47,28.33,79.82,53.77-.39-5.89-1.29-11.74-2.68-17.47,16.62,14.66,34.23,28.21,52.65,40.52l-2.03-16.03c9.26,12.29,19.86,23.58,31.55,33.6l-1.38-14.41c5.58,6.44,10.09,13.82,13.28,21.72Z"/>
    <path class="cls-4" d="M418.13,598.03l-2.24,11.88c-.15.8-.19,1.84.54,2.21.69.35,1.47-.22,2.03-.75,10.32-9.78,19.96-20.27,28.83-31.38l-1.15,16.2,52.72-40.72c-2.25,5.37-3.37,11.21-3.25,17.03,20.29-25.58,48.62-44.68,79.93-53.92-11.99,45.89-50.35,83.87-96.35,95.43-2.41.61-4.99,1.23-6.71,3.03-1.72,1.8-1.94,5.23.21,6.48,1.55.9,3.5.31,5.29.21,1.79-.1,4.07.93,3.86,2.71l-33.54,1.78,12.49,8.7c-18.06,1.21-36.32-.54-53.82-5.16,24.15-5.82,48.84-13.75,66.88-30.82,1.25-1.18,2.55-3.03,1.58-4.45-22.15,11.89-46.31,20.03-71.14,23.95,3.3-8.18,8-15.79,13.84-22.4Z"/>
    <path class="cls-1" d="M208.3,604.29c22.59,11.74,47.51,18.97,72.87,21.13,1.78.15,3.67.32,5.07,1.42,1.4,1.1,1.93,3.5.55,4.62-21.33-2.78-42.28-8.46-62.09-16.85-6-2.54-12.07-5.45-16.4-10.32Z"/>
    <path class="cls-1" d="M441.13,617.38c-16.74,6.44-34.18,11.06-51.91,13.76-1.46.22-3.26.28-4.05-.96-.71-1.12-.05-2.7,1.05-3.44,1.1-.74,2.49-.87,3.81-.99,25.74-2.36,51.03-9.57,74.15-21.14-6.57,5.9-14.8,9.6-23.04,12.77Z"/>
    <path class="cls-2" d="M459.68,631.26c5.15,2.32,9.53,6.31,12.33,11.21-24.43-2.33-48.86-4.66-73.29-7-5.92-.57-13.12-.55-16.3,4.48-9.7,15.31-27.45,25.19-45.57,25.36-18.12.18-36.06-9.35-46.06-24.46-4.24-6.41-13.53-6.29-21.18-5.45-22.57,2.48-45.14,4.97-67.72,7.45,1.18-5.55,6.03-10.12,11.64-10.98-11.32.32-22.71-2.58-32.5-8.27,4.61-1.24,9.21-2.49,13.82-3.73-50.58-10.96-92.55-54.37-101.78-105.29,30.39,6.42,58.46,23.39,78.26,47.32,0-4.42,0-8.83,0-13.25,16.58,13.39,33.15,26.78,49.73,40.16.26-6.05.52-12.11.78-18.16,9.27,11.98,19.28,23.39,29.96,34.13.06-3.37.11-6.73.17-10.1,7.68,1.21,11.4,9.72,14.96,16.63,3.56,6.91,11.17,14.08,18.07,10.49-.15-24.06-.56-49.21-11.85-70.46-20.35-38.31-69.98-53.24-91.89-90.68,6.06-3.02,12.84-4.57,19.61-4.48-14.84-18.43-35.63-33.27-59.14-35.92-23.52-2.65-49.35,9.27-58.34,31.16-4.24,10.32-4.23,23.09,2.76,31.79,6.64,8.27,3.11,22.26-6.36,27.03-9.47,4.77-22.28-.06-26.93-9.58-4.65-9.53-1.09-22.04,7.42-28.36-43.16-80.6-39.56-184.22,9.07-261.64,15.08-24,34.38-45.75,58.35-60.88,33.68-21.27,76.05-28.3,114.8-19.06,38.75,9.24,73.38,34.63,93.85,68.81,20.77-34.69,56.13-60.32,95.56-69.26,39.43-8.94,82.39-1.07,116.08,21.27,22.66,15.02,40.9,36.03,55.29,59.09,48.45,77.63,51.98,181.24,8.92,261.99,10.04,6.6,12.94,22.16,5.48,31.57-7.46,9.41-23.89,9.81-31.36.4-7.47-9.41-2.8-25.83,8.68-29.38-4.58-20.14-13.73-41.1-31.96-50.81-15.27-8.12-34.29-6.57-50.13.37-15.84,6.94-29.05,18.68-41.37,30.81,7.32-.17,14.67,2.38,20.33,7.03-26.55,36.61-76.82,53.63-95.34,94.89-8.92,19.88-8.91,42.45-8.75,64.23,6.74,3.8,14.37-3.52,17.78-10.46,3.42-6.94,7.3-15.56,15.01-16.2.29,3.29.58,6.57.87,9.86,10-11.55,20-23.09,29.99-34.64-.2,6.37-.4,12.74-.59,19.11,16.92-13.81,33.83-27.63,50.75-41.44-.31,4.65-.62,9.29-.93,13.94,20.24-23.76,48.38-40.66,78.86-47.36-9.12,50.98-51.2,94.46-101.86,105.24,5.34.53,10.54,2.36,15.03,5.29-10.4,4.37-21.74,6.49-33.01,6.18M534.43,158.55c-31.91-19.09-71.58-24.16-107.66-15.14-36.07,9.01-68.3,31.7-90.19,61.76-22.77-30.42-55.84-53.39-92.81-62.18-36.97-8.79-77.59-2.87-109.48,17.79-19.44,12.59-35.28,30.15-48.2,49.37-48.58,72.29-54.69,171.03-15.4,248.76,5.76-17.79,19.85-32.7,37.29-39.44,17.45-6.74,37.89-5.2,54.13,4.1-9.92-9.58-19.84-19.15-29.76-28.73,10.3-4.03,20.6-8.06,30.91-12.09,4.37-1.71,9.49-4.44,9.55-9.13.8-63.46,4.15-126.88,10.04-190.07,51.02,48.97,102.05,97.94,153.07,146.91,51.33-48.91,102.66-97.83,153.99-146.74,5.46,63.25,8.78,126.68,9.95,190.15.09,4.62,5.15,7.28,9.46,8.94,10.52,4.04,21.03,8.08,31.55,12.11-10.13,9.56-20.26,19.12-30.4,28.69,16.25-9.36,36.77-10.9,54.24-4.07,17.46,6.82,31.5,21.87,37.11,39.77,37.67-74.51,34.14-168.29-9.03-239.76-14.69-24.33-33.97-46.39-58.36-60.98M341.9,329.58c-1.78,1.61-3.9,3.33-6.28,3.01-1.65-.22-2.99-1.38-4.23-2.5-49.26-44.37-98.52-88.74-147.79-133.11-1.03,60.57-2.07,121.13-3.1,181.7-13.15,6.99-26.3,13.97-39.45,20.96,22.99,17.05,45.98,34.09,68.96,51.14,1.14.85,2.39,1.73,3.81,1.75,1.42.02,2.69-.83,3.86-1.64,28.23-19.71,56.46-39.42,84.7-59.13,3.58-2.5,8.18,1.12,11.01,4.44,7.59,8.92,15.18,17.83,22.77,26.74,8.34-9.53,16.68-19.06,25.03-28.59,2.09-2.39,5.44-4.97,8.05-3.16,28.62,19.92,57.24,39.83,85.86,59.75,1.05.73,2.19,1.5,3.48,1.52,1.43.03,2.7-.86,3.86-1.72,23.12-17.1,46.25-34.2,69.37-51.31-11.77-6.07-23.53-12.14-35.3-18.21-4.04-2.09-4.66-7.51-4.76-12.06-1.24-57.53-2.02-115.07-2.35-172.62-49.17,44.34-98.33,88.67-147.5,133.01M308.94,558.1c.51,19.8,3.72,39.53,9.53,58.47,11.55-3.47,24.14-3.38,35.64.26,5.72-19.18,8.94-39.1,9.56-59.1.11-3.5.29-7.39,2.78-9.87s8-1.47,7.97,2.03c-.61-6.92,4.32-13.92,11.04-15.68,41.02-10.7,73-41.93,102.93-71.96-19.08-1.8-37.7-8.16-53.9-18.4-23.23-14.69-46.46-29.38-69.69-44.06-1.26-.8-3.2-1.46-3.99-.2-6.24,10.01-12.48,20.02-18.72,30.03-2.13,3.41-7.22,6.97-9.35,3.56-6.62-10.62-13.24-21.23-19.86-31.85-.54-.87-1.17-1.81-2.15-2.11-1.18-.36-2.41.33-3.45.99-21.84,13.8-43.68,27.6-65.52,41.4-7.43,4.7-14.91,9.42-23.06,12.71-10.95,4.42-22.77,6.14-34.47,7.82,26.99,27.36,55.37,55.6,91.77,67.93,5.17,1.75,10.55,3.21,15.04,6.3,4.49,3.1,8.01,8.32,7.31,13.73.17-3.44,5.57-4.21,7.96-1.74,2.4,2.48,2.54,6.29,2.63,9.73M418.13,598.03c-5.84,6.61-10.54,14.22-13.84,22.4,24.83-3.93,48.99-12.06,71.14-23.95.97,1.42-.32,3.27-1.57,4.45-18.04,17.07-42.74,25-66.88,30.82,17.5,4.63,35.76,6.38,53.82,5.16-4.16-2.9-8.33-5.8-12.49-8.7,11.18-.59,22.36-1.19,33.54-1.78.22-1.78-2.06-2.81-3.86-2.71-1.79.1-3.74.69-5.29-.21-2.15-1.25-1.92-4.68-.21-6.48,1.72-1.8,4.29-2.42,6.71-3.03,46-11.55,84.35-49.54,96.35-95.43-31.31,9.24-59.64,28.35-79.93,53.92-.12-5.82,1-11.66,3.25-17.03l-52.72,40.72c.38-5.4.77-10.8,1.15-16.2-8.87,11.11-18.51,21.6-28.83,31.38-.56.53-1.34,1.09-2.03.75-.73-.37-.69-1.4-.54-2.21.75-3.96,1.49-7.92,2.24-11.88M268.37,620.32c-3.19-7.91-7.7-15.28-13.28-21.72.46,4.8.92,9.61,1.38,14.41-11.69-10.02-22.28-21.31-31.55-33.6.68,5.34,1.35,10.69,2.03,16.03-18.43-12.32-36.03-25.86-52.65-40.52,1.39,5.73,2.29,11.58,2.68,17.47-20.35-25.44-48.6-44.47-79.82-53.77,11.9,45.97,50.33,84.05,96.42,95.51,2.33.58,4.82,1.17,6.5,2.89,1.68,1.72,2,4.99-.02,6.31-1.54,1.01-3.57.44-5.41.34-1.84-.1-4.19.94-3.97,2.77,11.56.55,23.12,1.1,34.69,1.65-4.78,2.91-9.55,5.81-14.32,8.72,18.36,1.36,36.95-.44,54.71-5.3-24.03-4.15-47-14.32-66.22-29.33-1.65-1.29-3.12-4.22-1.18-5.01,21.82,11.55,45.59,19.41,70,23.15M357.92,618.11c10.84,8.17,14.41,24.59,7.94,36.53,12.22-8.24,17.49-23.67,19.07-38.33,1.58-14.65.28-29.6,3.1-44.07,3.38-17.36,12.83-33.48,26.33-44.91-9.68,3.28-19.36,6.56-29.03,9.84-1.01.34-2.05.7-2.92,1.31-2.18,1.54-2.94,4.36-3.6,6.95-.66,2.58-1.56,5.4-3.85,6.77-2.29,1.37-6.14-.19-5.73-2.83-3.77,22.91-7.54,45.83-11.31,68.74M313.18,606.71c-4.88-18.73-7.63-38.02-8.15-57.37-2.56,1.42-5.12,2.85-7.68,4.27-4.3-3.03-1.92-10.69-5.83-14.21-1.07-.96-2.47-1.46-3.84-1.93-9.8-3.39-19.6-6.77-29.41-10.16,12.92,10.89,22.11,26.13,25.71,42.64,3.22,14.78,2.05,30.13,3.62,45.18,1.57,15.04,6.68,30.89,18.96,39.72-1.93-5.48-3.58-11.19-3.31-17,.27-5.8,2.76-11.77,7.62-14.96,4.88-3.21,3.79-10.52,2.31-16.17M347.35,619.4c-3.47-.96-7.13-.98-10.73-.99-3.77,0-7.59,0-11.22.98-6.19,1.69-11.42,6.29-14.3,12.02-2.87,5.73-3.45,12.49-2.04,18.75.47,2.09,1.22,4.22,2.79,5.68,1.27,1.17,2.94,1.79,4.58,2.31,13.24,4.19,27.83,3.99,40.95-.56,1.11-.38,2.22-.81,3.13-1.54,1.69-1.37,2.43-3.58,2.87-5.71,1.31-6.26.81-12.99-1.96-18.75s-7.91-10.48-14.08-12.18M81.23,491.82c-.14-1.96-.87-3.85-1.89-5.52-.99-1.61-2.27-3.07-3.88-4.06-3.35-2.05-7.94-1.72-11.07.66-3.12,2.38-4.66,6.61-3.98,10.47.92,5.21,6.02,9.41,11.3,9.08s9.88-5.36,9.52-10.64M591.28,491.71c0,1.83.47,3.65,1.37,5.24,2.51,4.46,8.53,6.57,13.28,4.66,4.75-1.92,7.61-7.61,6.32-12.57-1.29-4.96-6.57-8.53-11.66-7.88-5.08.65-9.3,5.43-9.31,10.55M208.3,604.29c4.33,4.87,10.4,7.78,16.4,10.32,19.81,8.38,40.76,14.07,62.09,16.85,1.38-1.13.86-3.52-.54-4.62-1.4-1.1-3.3-1.27-5.07-1.42-25.36-2.16-50.29-9.38-72.87-21.13M441.13,617.38c8.24-3.17,16.46-6.87,23.04-12.77-23.12,11.57-48.4,18.78-74.15,21.14-1.32.12-2.71.25-3.81.99-1.1.74-1.76,2.32-1.05,3.44.79,1.24,2.6,1.18,4.05.96,17.73-2.7,35.17-7.33,51.91-13.76Z"/>
  </g>
</svg>